<?xml version="1.0" encoding="UTF-8" standalone="no"?>
<svg
   version="1.1"
   id="Layer_1"
   x="0px"
   y="0px"
   viewBox="0 0 122.88 116.82"
   style="enable-background:new 0 0 122.88 116.82"
   xml:space="preserve"
   sodipodi:docname="cloud-lightning-icon.svg"
   inkscape:version="1.3.2 (091e20e, 2023-11-25)"
   inkscape:export-filename="../Development/nextjs-boilerplate/public/cloud-lightning-icon.svg"
   inkscape:export-xdpi="18.74955"
   inkscape:export-ydpi="18.74955"
   xmlns:inkscape="http://www.inkscape.org/namespaces/inkscape"
   xmlns:sodipodi="http://sodipodi.sourceforge.net/DTD/sodipodi-0.dtd"
   xmlns="http://www.w3.org/2000/svg"
   xmlns:svg="http://www.w3.org/2000/svg"><defs
     id="defs1" /><sodipodi:namedview
     id="namedview1"
     pagecolor="#ffffff"
     bordercolor="#000000"
     borderopacity="0.25"
     inkscape:showpageshadow="2"
     inkscape:pageopacity="0.0"
     inkscape:pagecheckerboard="0"
     inkscape:deskcolor="#d1d1d1"
     inkscape:zoom="4.040404"
     inkscape:cx="61.75125"
     inkscape:cy="58.28625"
     inkscape:window-width="1440"
     inkscape:window-height="734"
     inkscape:window-x="95"
     inkscape:window-y="25"
     inkscape:window-maximized="0"
     inkscape:current-layer="Layer_1" /><style
     type="text/css"
     id="style1">.st0{fill-rule:evenodd;clip-rule:evenodd;}</style><g
     id="g1"><path
       class="st0"
       d="M59.63,61.55h22.58l-7.87,15.24l13.4,0.24l-32.64,39.8l6.28-26.18H50.81L59.63,61.55L59.63,61.55z M44.2,71.76 c2.03,0,3.68,1.65,3.68,3.68c0,2.03-1.65,3.68-3.68,3.68H23.38l-0.46-0.04c-2.67-0.34-5.09-0.97-7.29-1.88 c-2.25-0.93-4.26-2.14-6.04-3.63H9.58c-1.68-1.4-3.15-2.99-4.4-4.72C1.84,64.25,0.04,58.63,0,53.03 c-0.04-5.66,1.72-11.29,5.52-15.85c1.23-1.48,2.68-2.84,4.34-4.04c1.93-1.4,4.14-2.58,6.64-3.55c1.72-0.67,3.56-1.23,5.5-1.68 c2.2-8.74,6.89-15.47,12.92-20.14c5.64-4.37,12.43-6.92,19.42-7.59c6.96-0.67,14.12,0.51,20.55,3.6 c7.37,3.54,13.43,9.56,17.11,16.87c1.6-0.25,3.2-0.38,4.79-0.36c6.72,0.05,13.2,2.45,18.3,7.95c5.31,5.72,7.88,14.14,7.79,21.82 c-0.07,6.31-1.77,12.59-5.25,17.22c-2.27,3.02-5.18,5.47-8.67,7.42c-3.36,1.88-7.28,3.31-11.68,4.33c-1.98,0.45-3.95-0.78-4.4-2.76 c-0.45-1.98,0.78-3.95,2.76-4.4c3.71-0.86,6.97-2.04,9.72-3.58c2.63-1.47,4.78-3.26,6.39-5.41c2.5-3.33,3.73-8.04,3.78-12.87 c0.06-5.07-1.18-10.16-3.59-13.86c-0.69-1.07-1.44-2.03-2.25-2.89c-3.61-3.89-8.19-5.59-12.95-5.62 c-3.46-0.02-7.02,0.81-10.41,2.31c-0.75,0.37-1.51,0.78-2.25,1.21c-2.25,1.32-4.48,2.93-6.74,4.78l-4.84-5.54 c1.67-1.55,3.48-2.96,5.4-4.21c1.53-1,3.13-1.88,4.77-2.65c0.66-0.33,1.33-0.64,2-0.93c-3.19-5.65-7.78-9.7-12.98-12.2 c-5.2-2.49-11.02-3.45-16.69-2.9c-5.63,0.54-11.1,2.59-15.62,6.1c-5.23,4.06-9.2,10.11-10.73,18.14l-0.48,2.51l-2.5,0.44 c-2.45,0.43-4.64,1.02-6.56,1.77c-1.86,0.72-3.52,1.61-4.97,2.66c-1.16,0.84-2.16,1.78-3.01,2.8c-2.63,3.15-3.85,7.1-3.82,11.1 c0.03,4.06,1.35,8.16,3.79,11.53c0.91,1.25,1.96,2.4,3.16,3.4l-0.01,0.01c1.2,1,2.58,1.83,4.13,2.47c1.53,0.63,3.22,1.08,5.09,1.34 H44.2L44.2,71.76z M57.07,85.6l6.59-18.76h10.23l-5.32,14.28l8.03,0.14l-13.51,20.22l4.03-15.88H57.07L57.07,85.6z"
       id="path1" /></g><path
     style="fill:#ff0000;stroke-width:0.495"
     d=""
     id="path2" /><path
     style="fill:#ff0000;stroke-width:0.2475"
     d=""
     id="path3" /><path
     style="fill:#ff0000;stroke-width:0.2475"
     d="M 22.5225,78.916397 C 20.517914,78.593348 17.23526,77.679991 15.59983,76.990253 9.1214355,74.258011 3.9656932,68.542479 1.6301064,61.50375 0.54800603,58.242638 0.22289036,56.208438 0.22846579,52.733894 0.24404186,43.027056 5.1144128,35.332499 14.103998,30.812344 c 0.882887,-0.443936 3.038983,-1.278912 4.791324,-1.855507 l 3.186075,-1.048353 0.79582,-2.445493 C 24.751841,19.702422 27.5653,15.09571 31.78738,10.87363 38.351073,4.309937 46.872735,0.61779915 56.43,0.19684544 70.490858,-0.42247089 83.393437,6.4731043 90.595345,18.455965 l 1.247148,2.075056 4.383128,0.02213 c 3.897969,0.01968 4.646639,0.09317 6.763799,0.663877 9.93776,2.678859 16.54598,10.184823 19.0861,21.678986 0.43198,1.95474 0.53006,3.217671 0.53208,6.851483 0.002,3.942346 -0.072,4.771931 -0.64469,7.209148 -0.35594,1.514781 -0.99643,3.630906 -1.42329,4.7025 -3.28149,8.237701 -10.52054,13.851372 -21.698416,16.826483 -2.12335,0.565151 -2.451223,0.594297 -3.364005,0.299024 -1.434028,-0.463884 -2.499698,-1.848785 -2.499698,-3.248502 0,-2.219139 1.117289,-3.124353 5.248972,-4.252646 5.131327,-1.401281 8.817087,-3.419359 11.939157,-6.537091 1.72794,-1.725531 2.32491,-2.528992 3.15061,-4.240371 1.72731,-3.580105 2.12444,-5.58209 2.13415,-10.758545 0.009,-4.53692 -0.114,-5.467493 -1.15676,-8.78625 -2.10468,-6.698446 -7.23495,-11.585822 -13.64269,-12.996757 -2.605939,-0.573807 -7.123512,-0.414726 -10.06594,0.354464 -3.595472,0.939901 -8.490663,3.607335 -12.49875,6.810676 l -0.7425,0.593421 -2.300919,-2.640276 -2.300918,-2.640278 1.187168,-1.062963 c 1.906337,-1.706889 5.234113,-3.882617 8.20841,-5.366727 L 84.900088,22.63433 83.997513,21.217163 C 79.299104,13.840026 72.037602,9.1204552 63.133456,7.6566951 59.259336,7.0198249 54.052936,7.2591163 50.186307,8.2517594 38.75402,11.186662 30.957619,19.655384 28.514839,31.792063 l -0.470891,2.339563 -2.698849,0.531692 c -5.043964,0.9937 -8.350012,2.283616 -11.362531,4.433304 -8.456905,6.034723 -9.0751125,19.284252 -1.284996,27.540265 1.570502,1.664428 3.518345,3.017122 5.615794,3.899925 3.02381,1.272704 3.950172,1.352996 15.663959,1.357641 11.946614,0.0047 11.993694,0.01022 13.072757,1.52317 1.156218,1.621122 0.703548,3.669952 -1.110134,5.024584 -0.664615,0.496398 -0.98431,0.511159 -11.740957,0.542099 -6.081759,0.01749 -11.336179,-0.01306 -11.676491,-0.06791 z"
     id="path4" /><path
     style="fill:#ff0000;stroke-width:0.2475"
     d="M 21.16125,78.5545 C 15.181873,77.142688 11.055304,74.873915 7.4428091,71.012148 2.3591371,65.577686 -0.17632762,58.107931 0.49290345,50.536973 1.0168543,44.609558 3.1303431,39.99152 7.1493483,35.99244 10.363792,32.793931 13.648382,30.875471 18.993754,29.074367 l 3.208048,-1.080941 0.788282,-2.404933 C 26.585549,14.619254 34.792095,6.2017441 45.614497,2.3824726 49.347203,1.0651858 52.123673,0.59545542 57.04875,0.44799651 c 3.787096,-0.11338736 4.900267,-0.0570871 7.425,0.37553063 7.448562,1.27632556 14.100072,4.58576746 19.513207,9.70874486 2.478507,2.345652 5.330843,5.921187 6.838853,8.572817 l 0.85956,1.511418 4.83294,0.114176 c 5.52133,0.130439 6.88182,0.418566 10.8637,2.300734 7.35217,3.475246 12.15406,9.976992 14.5217,19.662333 0.53995,2.208781 0.76311,9.234059 0.37717,11.873523 -1.66404,11.380419 -8.47533,18.89609 -20.80156,22.952727 -4.058459,1.335665 -5.261188,1.502389 -6.421728,0.890183 -1.295685,-0.683499 -1.873842,-1.634918 -1.873842,-3.0836 0,-1.906629 0.929768,-2.621486 5.112417,-3.930711 3.897713,-1.220036 6.306433,-2.286984 8.576273,-3.798875 2.03366,-1.354575 5.0464,-4.360859 6.00638,-5.993497 1.05237,-1.789752 2.13521,-4.958395 2.43771,-7.133294 0.33607,-2.416256 0.34063,-7.690659 0.008,-9.796456 C 114.09117,36.851542 109.12116,30.585082 102.34125,28.30312 100.79946,27.784187 100.15923,27.72 96.525,27.72 c -4.448555,0 -5.631892,0.196104 -8.645913,1.432805 -3.108075,1.275293 -6.369915,3.219891 -10.153786,6.053342 -0.358729,0.268624 -0.695423,-0.01934 -2.596634,-2.220795 l -2.184462,-2.52944 1.209772,-1.068975 c 1.71645,-1.516685 5.162727,-3.752365 8.16234,-5.295105 1.413554,-0.727008 2.571465,-1.418229 2.573139,-1.536048 0.0017,-0.117818 -0.490734,-0.95313 -1.09424,-1.85625 C 79.529796,14.31653 73.613843,10.15969 65.889631,8.1181915 63.920847,7.5978451 62.736827,7.4608266 59.37253,7.3640145 54.600354,7.2266886 51.464591,7.6173144 47.987433,8.7822692 37.457511,12.310117 30.546225,20.632401 28.213186,32.593594 l -0.274748,1.408594 -1.408594,0.279817 c -9.576763,1.902418 -14.807377,5.04404 -17.5076815,10.515495 -4.425568,8.967247 -0.5706139,20.950981 8.1196135,25.241107 3.439154,1.697813 4.199406,1.787031 16.721686,1.962336 12.067011,0.168931 12.24978,0.192233 13.155194,1.677287 0.881803,1.446331 0.564476,3.080217 -0.856109,4.40802 L 45.500561,78.705 33.825904,78.746627 C 27.199988,78.770251 21.723122,78.687165 21.16125,78.5545 Z"
     id="path5" /><path
     style="fill:#ff0000;stroke-width:0.2475"
     d="M 55.528658,115.5825 C 55.964891,114.05951 61.38,91.175265 61.38,90.854738 c 0,-0.332133 -0.693437,-0.392612 -5.1647,-0.45044 l -5.1647,-0.0668 4.313143,-14.225318 c 2.372228,-7.823925 4.344815,-14.25699 4.383525,-14.2957 0.03871,-0.03871 5.037271,-0.04138 11.107912,-0.0059 l 11.037531,0.06445 -3.835748,7.389983 c -2.10966,4.064491 -3.785727,7.440003 -3.724594,7.501136 0.06113,0.06113 3.023221,0.188267 6.582415,0.282517 L 87.386045,77.22 71.765058,96.2775 c -8.591542,10.48162 -15.791355,19.22456 -15.999584,19.42875 -0.337668,0.33111 -0.363271,0.31774 -0.236816,-0.12375 z M 69.91875,91.542721 c 3.675375,-5.523633 6.719625,-10.142757 6.764999,-10.26472 0.04648,-0.124934 -1.667003,-0.221751 -3.924604,-0.221751 -3.103346,0 -3.980605,-0.06978 -3.889612,-0.309375 1.095629,-2.884952 5.132967,-13.844627 5.132967,-13.933847 0,-0.06689 -2.358235,-0.09156 -5.240522,-0.05483 l -5.240522,0.0668 -3.138448,8.91 c -1.726145,4.9005 -3.217853,9.160594 -3.314906,9.466875 l -0.176459,0.556875 h 4.966678 c 3.155907,0 4.966679,0.0905 4.966679,0.248234 0,0.136528 -0.882234,3.700529 -1.96052,7.919998 -1.078286,4.219472 -1.885755,7.66883 -1.794375,7.66524 0.09138,-0.004 3.17327,-4.52587 6.848645,-10.049501 z"
     id="path6" /><path
     style="fill:#d40000;stroke-width:0.2475"
     d="m 55.778571,115.0875 c 0.194135,-0.66643 3.064739,-12.68447 4.470069,-18.714341 0.622248,-2.669889 1.13136,-5.075953 1.13136,-5.34681 0,-0.434761 -0.221878,-0.511221 -1.893592,-0.652531 -1.041476,-0.08804 -3.336579,-0.160068 -5.10023,-0.160068 -2.462006,0 -3.179775,-0.07184 -3.090958,-0.309375 0.06362,-0.170156 1.923212,-6.259105 4.132418,-13.530998 2.209207,-7.271892 4.115372,-13.481049 4.235924,-13.798125 L 59.882748,61.99875 H 70.76496 81.647171 l -3.725283,7.315802 c -2.048907,4.023691 -3.655344,7.385742 -3.569861,7.471225 0.135408,0.135408 7.774292,0.496388 11.468447,0.541949 L 87.1197,77.34375 78.038623,88.419375 C 61.508471,108.58018 56.36165,114.83593 55.996028,115.21125 c -0.319948,0.32844 -0.345025,0.31417 -0.217457,-0.12375 z M 70.035331,91.567555 C 73.714649,86.050397 76.725,81.445724 76.725,81.334947 c 0,-0.110777 -1.689226,-0.274528 -3.753836,-0.363891 -2.06461,-0.08936 -3.790291,-0.198933 -3.834847,-0.243489 -0.04456,-0.04456 1.032107,-3.100669 2.392586,-6.791362 1.360478,-3.690692 2.473597,-6.828386 2.473597,-6.972652 0,-0.176553 -1.728771,-0.262303 -5.288179,-0.262303 h -5.288179 l -2.666831,7.610625 c -1.466757,4.185844 -2.971216,8.456776 -3.343241,9.490962 l -0.67641,1.880336 4.842575,0.167694 c 2.663417,0.09223 4.889147,0.214265 4.946067,0.271185 0.05692,0.05692 -0.692387,3.367557 -1.665129,7.35697 -2.136075,8.760478 -1.999187,8.119728 -1.734671,8.119728 0.119438,0 3.227511,-4.514039 6.906829,-10.031195 z"
     id="path7" /><path
     style="fill:#d40000;stroke-width:0.2475"
     d="M 19.92375,78.223466 C 16.914464,77.426044 15.800052,77.0037 13.661543,75.850204 4.8154028,71.078656 -0.49761689,60.846952 0.48510438,50.475288 1.051909,44.493218 3.1044707,40.030093 7.1520617,35.978535 10.407482,32.719928 14.411011,30.488891 20.428288,28.580129 l 1.742039,-0.552598 0.917305,-2.696176 c 1.056482,-3.105249 2.615681,-6.349024 4.2287,-8.797432 C 32.43285,8.7675372 40.815386,3.1116749 50.193247,1.0984148 53.704587,0.34459308 60.358666,0.1679084 63.957544,0.73293365 75.201957,2.49831 84.723133,8.9991198 90.878629,19.113944 l 0.912379,1.499237 4.780121,0.116454 c 5.450361,0.132782 6.848571,0.428899 10.764231,2.279683 2.75851,1.303843 4.0634,2.183051 6.18351,4.166313 3.8776,3.627298 6.51512,8.347707 8.13066,14.551523 0.55403,2.127522 0.69279,3.293009 0.79798,6.702493 0.14572,4.72276 -0.10809,6.976106 -1.19959,10.650229 -2.6664,8.975434 -9.01109,14.893567 -19.77292,18.443566 -4.284359,1.41328 -5.517072,1.554795 -6.6825,0.767144 -1.932715,-1.306221 -2.233651,-3.629694 -0.657229,-5.074374 0.649482,-0.595208 1.661841,-1.037889 4.160896,-1.819464 5.957723,-1.863264 9.257323,-3.788703 12.631283,-7.370817 1.85732,-1.971912 3.05343,-4.194816 3.95404,-7.348431 0.50915,-1.782844 0.56494,-2.497537 0.56027,-7.1775 -0.005,-4.958583 -0.0365,-5.299893 -0.68629,-7.425 -2.19454,-7.177087 -6.35831,-11.700921 -12.78547,-13.891123 -1.95823,-0.667312 -9.041391,-0.663704 -11.385,0.0058 -3.212298,0.917663 -8.205962,3.55256 -11.594789,6.117967 -1.535499,1.162404 -1.637388,1.201939 -2.018634,0.783276 -0.22083,-0.242506 -1.227821,-1.375358 -2.237754,-2.517447 l -1.836245,-2.076529 1.233085,-1.097141 c 1.69902,-1.511703 5.132189,-3.737576 8.192171,-5.31134 1.409967,-0.725154 2.564948,-1.410926 2.566622,-1.523938 0.0084,-0.565888 -3.185848,-4.744295 -5.015395,-6.560695 C 76.468686,12.622929 72.761896,10.347476 68.133723,8.796895 64.976229,7.7390376 62.060848,7.30125 58.173694,7.30125 c -8.581911,0 -15.39276,2.618602 -21.086769,8.10734 -4.447979,4.287628 -7.201258,9.539422 -8.750623,16.691546 l -0.412711,1.905134 -1.401169,0.278494 C 15.780994,36.418712 10.319303,40.246208 7.9879924,47.2725 c -0.5856785,1.765165 -0.658469,2.369387 -0.670865,5.56875 -0.010959,2.82846 0.085793,3.92957 0.4566944,5.1975 2.1816897,7.458133 7.7621112,12.767112 14.2878112,13.592821 1.002164,0.126804 6.539915,0.298089 12.306115,0.380628 11.528657,0.165028 11.75385,0.194683 12.650908,1.666031 0.881803,1.446331 0.564476,3.080217 -0.856109,4.40802 L 45.500561,78.705 33.825904,78.75936 C 22.225984,78.81338 22.136991,78.80994 19.92375,78.223463 Z"
     id="path8" /><path
     style="fill:#d40000;stroke-width:0.2475"
     d="m 55.935,114.82507 c 0,-0.0786 0.288241,-1.2768 0.640535,-2.66272 0.352294,-1.38592 0.671692,-2.7426 0.709773,-3.01485 0.03808,-0.27225 0.130462,-0.66206 0.205291,-0.86625 0.16569,-0.45212 0.989413,-3.93805 1.052713,-4.455 0.025,-0.20419 0.107946,-0.53831 0.184317,-0.7425 0.157955,-0.42231 0.734149,-2.9038 0.804563,-3.465 0.02562,-0.204188 0.109066,-0.538313 0.185437,-0.7425 0.141781,-0.379064 0.683301,-2.695278 0.839035,-3.58875 0.04745,-0.27225 0.276214,-1.356335 0.508357,-2.409076 0.34054,-1.544306 0.361539,-1.974622 0.108701,-2.2275 -0.215036,-0.215068 -1.338621,-0.330638 -3.580425,-0.36828 -5.364504,-0.09007 -6.641464,-0.275579 -6.16298,-0.895304 0.215273,-0.278816 1.433428,-4.056383 1.615978,-5.011238 0.0498,-0.260481 0.214559,-0.775606 0.366134,-1.144721 0.151575,-0.369115 0.310637,-0.92599 0.353473,-1.2375 0.04284,-0.31151 0.14539,-0.677756 0.227901,-0.813881 0.20073,-0.331162 1.509913,-4.602218 1.556562,-5.078101 0.02025,-0.206581 0.101875,-0.485019 0.181388,-0.61875 0.198602,-0.334026 1.505571,-4.609175 1.551112,-5.07375 0.02025,-0.206581 0.102913,-0.485019 0.183696,-0.61875 0.178307,-0.295179 1.740053,-5.290259 1.817129,-5.811899 0.03017,-0.204188 0.190953,-0.733219 0.357294,-1.175625 0.281056,-0.747505 0.383845,-0.804768 1.453853,-0.809933 8.853843,-0.04274 20.203562,0.04952 20.391627,0.16575 0.155054,0.09583 0.151908,0.204506 -0.0088,0.30387 -0.137598,0.08508 -0.927152,1.546875 -1.754567,3.248438 -0.827415,1.701562 -1.622118,3.232969 -1.766007,3.403125 -0.143889,0.170156 -0.197146,0.309375 -0.118349,0.309375 0.0788,0 0.02363,0.139219 -0.122589,0.309375 -0.382088,0.44463 -3.480434,6.936351 -3.365443,7.051343 0.162674,0.162674 2.284622,0.291879 7.448032,0.453508 2.7225,0.08522 4.984709,0.187876 5.027133,0.22812 0.04242,0.04025 -0.263857,0.46154 -0.680625,0.936212 -0.416768,0.474671 -0.757758,0.912574 -0.757758,0.973117 0,0.06054 -0.501188,0.655975 -1.11375,1.323182 -0.612563,0.667207 -1.11375,1.27977 -1.11375,1.36125 0,0.08148 -0.501188,0.694043 -1.11375,1.36125 -0.612563,0.667207 -1.11375,1.35475 -1.11375,1.527873 0,0.173124 -0.09547,0.31477 -0.21215,0.31477 -0.186696,0 -3.25285,3.572021 -3.25285,3.789522 0,0.0466 -0.501188,0.630627 -1.11375,1.297835 -0.612563,0.667208 -1.11375,1.279771 -1.11375,1.36125 0,0.08148 -0.501188,0.694042 -1.11375,1.36125 -0.612563,0.667208 -1.11375,1.279771 -1.11375,1.36125 0,0.08148 -0.501188,0.694042 -1.11375,1.36125 -0.612563,0.667208 -1.11375,1.354751 -1.11375,1.527872 0,0.173124 -0.09547,0.314771 -0.212149,0.314771 -0.186698,0 -3.252851,3.57202 -3.252851,3.78952 0,0.0466 -0.501188,0.63063 -1.11375,1.29784 -0.612563,0.66721 -1.11375,1.35475 -1.11375,1.52787 0,0.17312 -0.09547,0.31477 -0.212149,0.31477 -0.273188,0 -3.252851,3.62389 -3.252851,3.95615 0,0.13824 -0.09639,0.25135 -0.214206,0.25135 -0.234223,0 -3.250794,3.56497 -3.250794,3.84178 0,0.0939 -0.278438,0.38975 -0.61875,0.65744 -0.340313,0.26769 -0.61875,0.61889 -0.61875,0.78046 0,0.16156 -0.22275,0.43286 -0.495,0.60288 -0.27225,0.17003 -0.495,0.24484 -0.495,0.16626 z m 7.803507,-13.99168 c 0.08242,-0.25968 0.253719,-0.47214 0.380671,-0.47214 0.126952,0 0.230822,-0.15778 0.230822,-0.35063 0,-0.192838 0.09596,-0.387744 0.213244,-0.433121 0.290141,-0.112249 5.479256,-7.76536 5.479256,-8.081021 0,-0.138313 0.09713,-0.288602 0.215842,-0.333979 0.304995,-0.116575 5.476658,-7.987254 5.476658,-8.334845 0,-0.157523 0.111375,-0.286404 0.2475,-0.286404 0.136125,0 0.2475,-0.157781 0.2475,-0.350625 0,-0.192844 0.139219,-0.401672 0.309375,-0.464063 0.219139,-0.08035 0.232957,-0.195271 0.04737,-0.394006 -0.15573,-0.166763 -1.546972,-0.330981 -3.429858,-0.40485 -1.742318,-0.06835 -3.324609,-0.212006 -3.516202,-0.319227 -0.293773,-0.164404 -0.273404,-0.412791 0.130004,-1.585316 0.263096,-0.764702 0.413322,-1.455403 0.333834,-1.534891 -0.07949,-0.07949 -0.02343,-0.144522 0.124563,-0.144522 0.213578,0 0.543265,-0.853173 0.669482,-1.7325 0.0098,-0.06806 0.09297,-0.241621 0.184885,-0.385685 0.160365,-0.251344 1.637866,-4.201483 1.663463,-4.447315 0.0068,-0.06565 0.185135,-0.532707 0.396221,-1.037905 0.211085,-0.505198 0.413675,-1.114359 0.4502,-1.353691 0.03652,-0.239331 0.143528,-0.512268 0.237786,-0.606526 0.09426,-0.09426 0.171378,-0.375566 0.171378,-0.625128 0,-0.425946 -0.326436,-0.45375 -5.327376,-0.45375 h -5.327376 l -0.248076,0.65249 c -0.136442,0.358869 -0.283724,0.832213 -0.327294,1.051875 -0.04357,0.219661 -0.219365,0.73351 -0.390656,1.141885 -0.324192,0.772904 -1.167203,3.125643 -1.197204,3.34125 -0.0095,0.06806 -0.122134,0.402187 -0.250362,0.7425 -0.948278,2.5167 -1.500739,4.2075 -1.37478,4.2075 0.0818,0 0.03529,0.139219 -0.103352,0.309375 -0.199544,0.244893 -1.625402,4.025976 -1.820817,4.828435 -0.02457,0.100892 -0.181075,0.517565 -0.347791,0.92594 -0.782766,1.917405 -0.938522,1.776368 2.17672,1.971016 1.540481,0.09625 3.353528,0.148047 4.028994,0.115098 0.675466,-0.03295 1.600399,0.02434 2.055406,0.127312 0.992829,0.224681 1.058926,-0.37519 -0.833317,7.562824 -0.730105,3.062812 -1.384625,5.847187 -1.454489,6.1875 -0.06986,0.34031 -0.200907,0.871 -0.291206,1.1793 -0.130252,0.44472 -0.08324,0.5295 0.227476,0.41026 0.215411,-0.0827 0.459089,-0.36275 0.541507,-0.62242 z"
     id="path9" /><path
     style="fill:#d40000;stroke-width:0.2475"
     d="m 55.935,114.86191 c 0,-0.0583 0.274197,-1.25654 0.609328,-2.66272 0.33513,-1.40618 0.665035,-2.83513 0.733121,-3.17544 0.06809,-0.34031 0.342903,-1.45406 0.610703,-2.475 0.2678,-1.02094 0.544877,-2.19038 0.615725,-2.59875 0.07085,-0.40838 0.293948,-1.35506 0.495776,-2.10375 0.201828,-0.74869 0.424578,-1.69538 0.495,-2.10375 0.07042,-0.408375 0.293172,-1.355063 0.495,-2.10375 0.201828,-0.748688 0.429389,-1.695375 0.505692,-2.10375 0.0763,-0.408375 0.315507,-1.618989 0.531566,-2.690253 0.270397,-1.340681 0.313105,-2.027481 0.137025,-2.203562 -0.147154,-0.147151 -2.066148,-0.301807 -4.517888,-0.364102 -2.344143,-0.05956 -4.500074,-0.19878 -4.790958,-0.309373 -0.527525,-0.200564 -0.526525,-0.208269 0.390517,-3.009395 0.505668,-1.544573 0.872578,-2.884151 0.815357,-2.976838 -0.05722,-0.09269 -0.0035,-0.230677 0.119441,-0.306642 0.180632,-0.111636 0.394691,-0.826995 0.635446,-2.123585 0.01264,-0.06806 0.09092,-0.235125 0.173961,-0.37125 0.132823,-0.217733 1.401597,-4.408934 1.562015,-5.15988 0.0335,-0.156816 0.130456,-0.452183 0.21546,-0.65637 0.275845,-0.662605 1.388919,-4.328138 1.467189,-4.831692 0.04185,-0.269257 0.142052,-0.600933 0.222668,-0.737058 0.166773,-0.281608 1.638354,-5.004803 1.781721,-5.718621 0.05179,-0.257883 0.231509,-0.830848 0.399365,-1.273254 0.283464,-0.747104 0.387173,-0.804771 1.456607,-0.809933 8.68193,-0.04191 20.201391,0.04818 20.381326,0.159383 0.130512,0.08066 0.07579,0.320624 -0.125737,0.551371 -0.19625,0.224705 -1.878189,3.471366 -3.737636,7.214804 l -3.380818,6.80625 1.555889,0.166021 c 0.855739,0.09131 3.672014,0.241475 6.258389,0.333696 2.586375,0.09222 4.731782,0.195294 4.76757,0.22905 0.07615,0.07182 -1.056431,1.540229 -2.363957,3.064916 -0.505236,0.58915 -0.996103,1.208871 -1.090811,1.377157 -0.09471,0.168286 -0.623742,0.799955 -1.175625,1.403708 C 81.631541,83.9033 81.18,84.476354 81.18,84.572999 c 0,0.09665 -0.261702,0.43082 -0.581558,0.74261 -0.319857,0.31179 -1.163622,1.290828 -1.875031,2.175641 -0.711409,0.884812 -1.702676,2.090781 -2.202816,2.679932 -0.500139,0.589152 -0.986835,1.208872 -1.081544,1.377157 -0.09471,0.168288 -0.62374,0.799955 -1.175625,1.403709 C 73.711542,93.555799 73.26,94.110187 73.26,94.184019 c 0,0.07383 -0.500707,0.686443 -1.112681,1.361361 -0.611975,0.674915 -1.113162,1.306144 -1.11375,1.402728 -5.88e-4,0.09658 -0.26277,0.43071 -0.582628,0.7425 -0.319857,0.311791 -1.16362,1.290829 -1.875029,2.175642 -0.711409,0.88481 -1.702676,2.09078 -2.202816,2.67993 -0.500141,0.58915 -1.013223,1.25603 -1.140183,1.48194 -0.12696,0.22592 -0.419189,0.5792 -0.649397,0.78507 -0.230209,0.20587 -0.991406,1.09825 -1.691549,1.98306 -0.700143,0.88481 -1.476781,1.8315 -1.725864,2.10375 -0.249082,0.27225 -1.029089,1.21894 -1.733349,2.10375 -0.70426,0.88481 -1.556611,1.88839 -1.894114,2.23017 -0.337502,0.34178 -0.61364,0.73265 -0.61364,0.86859 0,0.13594 -0.22275,0.38628 -0.495,0.5563 -0.27225,0.17003 -0.495,0.26142 -0.495,0.2031 z m 9.103914,-15.923785 c 1.921049,-2.686227 4.954921,-7.203379 8.401609,-12.509212 1.256351,-1.934028 2.3701,-3.63346 2.475001,-3.776517 0.518032,-0.706467 0.778912,-1.338322 0.598581,-1.449774 -0.11042,-0.06824 -1.691478,-0.186595 -3.513466,-0.263008 -1.821989,-0.07641 -3.39763,-0.223855 -3.501426,-0.327651 -0.208217,-0.208217 0.405778,-2.520078 0.943863,-3.5539 0.188058,-0.361316 0.341924,-0.868072 0.341924,-1.126125 0,-0.258054 0.09964,-0.574994 0.221411,-0.704313 0.18545,-0.196936 1.420345,-3.391253 1.621799,-4.195125 0.03411,-0.136125 0.133369,-0.414563 0.220567,-0.61875 0.461054,-1.079627 1.104498,-3.344416 0.998774,-3.515481 -0.06697,-0.108361 -2.456823,-0.197019 -5.310784,-0.197019 h -5.189019 l -0.248076,0.65249 c -0.136442,0.358869 -0.283724,0.832213 -0.327294,1.051875 -0.04357,0.219661 -0.191729,0.677822 -0.329244,1.018135 -0.749506,1.854822 -1.285351,3.465 -1.153105,3.465 0.08282,0 0.04039,0.139219 -0.09428,0.309375 -0.197675,0.249756 -1.282854,3.222774 -1.445438,3.96 -0.02252,0.102094 -0.06878,0.241312 -0.102811,0.309375 -0.03403,0.06806 -0.08513,0.207281 -0.113552,0.309375 -0.02842,0.102094 -0.167272,0.464062 -0.308555,0.804375 -0.334115,0.804792 -1.602209,4.33125 -1.557493,4.33125 0.01892,0 -0.07422,0.278437 -0.206976,0.61875 -0.132756,0.340312 -0.35908,0.921088 -0.502942,1.290613 -0.150973,0.387789 -0.167638,0.729915 -0.03941,0.809161 0.122183,0.07551 2.094834,0.195011 4.383667,0.265551 4.561353,0.140576 5.027766,0.211501 5.027766,0.764552 0,0.20571 -0.671006,3.177487 -1.491123,6.603946 -0.820118,3.42646 -1.548898,6.554679 -1.619512,6.951597 -0.07061,0.39692 -0.185806,0.81458 -0.255983,0.92813 -0.07018,0.11355 -0.02018,0.20645 0.111098,0.20645 0.131281,0 1.015277,-1.08591 1.964434,-2.413125 z"
     id="path10" /><path
     style="fill:#ff5555;stroke-width:0.2475"
     d="m 55.93532,114.78022 c 1.77e-4,-0.10325 0.275063,-1.32175 0.61086,-2.70778 0.335797,-1.38603 0.664287,-2.77821 0.729978,-3.09375 0.06569,-0.31553 0.346362,-1.49408 0.623714,-2.61899 0.277351,-1.12492 0.567037,-2.40573 0.643746,-2.84625 0.07671,-0.44052 0.296981,-1.35783 0.489493,-2.03845 0.192512,-0.68063 0.404902,-1.515938 0.471977,-1.85625 0.06708,-0.340313 0.29112,-1.309666 0.497877,-2.154119 0.206756,-0.844453 0.439864,-1.902515 0.518016,-2.35125 0.07815,-0.448735 0.311697,-1.564878 0.518988,-2.480319 0.207291,-0.91544 0.31625,-1.762559 0.242131,-1.882487 -0.07412,-0.119926 -2.102815,-0.29848 -4.508214,-0.396787 -2.405399,-0.09831 -4.635769,-0.278472 -4.956378,-0.400366 l -0.582926,-0.221629 0.514736,-1.305897 C 52.032423,87.707654 52.236506,87.12 52.202835,87.12 c -0.03367,0 0.127275,-0.612563 0.357657,-1.36125 0.230382,-0.748688 0.573218,-1.862438 0.761857,-2.475 0.779647,-2.531721 2.215187,-7.234061 3.022292,-9.9 0.473932,-1.565438 0.972395,-3.180375 1.107696,-3.58875 0.674747,-2.036567 1.714553,-5.452615 1.800134,-5.913936 0.05317,-0.286585 0.237361,-0.827345 0.409324,-1.201689 0.274112,-0.59671 0.452706,-0.68131 1.448557,-0.686183 8.578564,-0.04197 20.18548,0.04793 20.363136,0.15773 0.125626,0.07764 0.03243,0.437132 -0.207098,0.798871 -0.239528,0.361739 -1.923132,3.609144 -3.741339,7.216457 l -3.305834,6.55875 1.809766,0.167467 c 0.995373,0.09211 3.811836,0.237925 6.25881,0.324041 2.446973,0.08612 4.494387,0.201922 4.549812,0.257346 0.05542,0.05542 -0.252052,0.522168 -0.683276,1.037208 -1.084391,1.295161 -1.272519,1.522916 -2.197567,2.660441 -0.446592,0.549173 -1.226217,1.487874 -1.7325,2.086002 -0.506281,0.598128 -1.087575,1.339048 -1.291762,1.646489 -0.204188,0.307442 -1.074167,1.377315 -1.933289,2.377495 -2.711697,3.156931 -3.381732,3.969783 -3.614309,4.384705 -0.124491,0.222094 -0.30616,0.459493 -0.403708,0.527556 -0.09755,0.06806 -0.583836,0.624937 -1.08064,1.2375 -0.496803,0.612562 -1.317509,1.603127 -1.823792,2.201255 -0.506282,0.598128 -1.087575,1.339049 -1.291762,1.646489 -0.204188,0.307442 -1.074168,1.377315 -1.933289,2.377495 -2.317487,2.698001 -3.20998,3.775611 -3.824887,4.618231 -0.304191,0.41684 -1.146631,1.46099 -1.87209,2.32034 -1.53121,1.8138 -1.67182,1.98226 -3.576456,4.28494 -0.78816,0.95287 -1.707577,2.04071 -2.043148,2.4174 -0.335572,0.3767 -0.61013,0.76756 -0.61013,0.86859 0,0.10103 -0.22275,0.3228 -0.495,0.49282 -0.27225,0.17003 -0.494856,0.22466 -0.49468,0.12141 z m 9.072639,-15.842095 c 1.687766,-2.417258 9.105772,-13.547872 10.795301,-16.198198 1.082273,-1.697738 1.22613,-1.612315 -3.02509,-1.796281 -1.69432,-0.07332 -3.17051,-0.223236 -3.280424,-0.33315 -0.211741,-0.211741 0.334549,-2.367555 0.931359,-3.675401 0.195742,-0.428947 0.355895,-0.898512 0.355895,-1.043478 0,-0.144965 0.1825,-0.685008 0.405556,-1.200095 0.223055,-0.515087 0.501437,-1.159272 0.618625,-1.431522 0.247365,-0.574677 1.034368,-2.849978 1.685823,-4.873878 0.249419,-0.774883 0.391392,-1.470976 0.315493,-1.546875 -0.0759,-0.0759 -2.449672,-0.137997 -5.275053,-0.137997 h -5.137056 l -0.283938,0.928125 c -0.156166,0.510469 -0.389235,1.150875 -0.517932,1.423125 -0.21941,0.464146 -0.746565,1.978968 -2.454693,7.05375 -0.389457,1.157062 -1.052014,2.99475 -1.472348,4.08375 -0.420335,1.089 -0.800711,2.147062 -0.84528,2.35125 -0.04457,0.204187 -0.217539,0.705375 -0.384375,1.11375 -0.166837,0.408375 -0.364845,1.048781 -0.440018,1.423125 l -0.136679,0.680625 1.577812,0.02495 c 3.333376,0.05271 6.798463,0.215636 7.332188,0.344759 0.306281,0.0741 0.556875,0.291014 0.556875,0.482032 0,0.455608 -3.195763,14.257859 -3.36445,14.530799 -0.07137,0.11548 -0.02012,0.20996 0.113883,0.20996 0.134005,0 1.001842,-1.08591 1.928526,-2.413123 z"
     id="path11" /><path
     style="fill:#ff2a2a;stroke-width:0.2475"
     d="M 32.9175,78.552884 C 20.568069,78.399548 20.23611,78.383433 18.98704,77.87662 c -0.379066,-0.153804 -0.768878,-0.268889 -0.86625,-0.255742 -0.09737,0.01315 -0.424454,-0.05598 -0.726849,-0.153628 -0.302396,-0.09765 -0.624069,-0.155866 -0.714829,-0.129381 -0.09076,0.02649 -0.233159,-0.04488 -0.316441,-0.158605 -0.157636,-0.215251 -4.111421,-2.233321 -4.111421,-2.09853 0,0.201816 -2.217346,-1.811389 -4.33125,-3.932493 C 6.3318712,69.554702 5.1682697,68.10879 4.3348316,66.693241 3.6561764,65.540584 3.0062575,64.529361 2.8905676,64.446079 2.7748774,64.362796 2.6988447,64.251421 2.721606,64.198579 2.8116916,63.989432 2.4109402,62.74125 2.2537047,62.74125 c -0.092198,0 -0.182881,-0.194906 -0.2015172,-0.433125 C 2.0335513,62.069906 1.723864,60.816937 1.3639933,59.52375 0.53445798,56.542833 0.29197412,52.551576 0.74426819,49.323144 0.92134818,48.059166 1.089013,46.857937 1.1168567,46.65375 c 0.027844,-0.204188 0.1590755,-0.649688 0.2916263,-0.99 0.1325508,-0.340313 0.5062082,-1.342688 0.8303498,-2.2275 1.6851943,-4.600092 6.4752454,-9.544731 11.8686672,-12.251703 0.748687,-0.375767 1.416937,-0.75214 1.485,-0.836382 0.06806,-0.08424 0.290812,-0.173604 0.495,-0.198584 0.204187,-0.02498 1.670111,-0.510256 3.257607,-1.078389 l 2.886358,-1.032971 0.779668,-2.262861 C 24.136471,22.509248 26.739326,17.365519 28.328724,15.266805 29.082926,14.270922 29.7,13.428837 29.7,13.395504 c 0,-0.03333 1.002375,-1.06298 2.2275,-2.288105 1.225125,-1.2251255 2.2275,-2.1854272 2.2275,-2.1340046 0,0.051423 0.473344,-0.2909303 1.051875,-0.7607843 1.67725,-1.3621796 4.457831,-3.0747195 6.802743,-4.1897619 1.193022,-0.567301 2.224819,-1.0919569 2.292882,-1.1659022 0.06806,-0.073945 0.235125,-0.1350568 0.37125,-0.1358035 0.548839,-0.00301 2.59875,-0.7393872 2.59875,-0.9335322 0,-0.1144406 0.08581,-0.1550393 0.190691,-0.09022 0.104881,0.06482 1.079412,-0.09977 2.165625,-0.3657557 2.497367,-0.61154011 3.193265,-0.66450128 8.781184,-0.66828845 4.864142,-0.003297 5.823215,0.0430479 6.468583,0.31257666 0.222659,0.09299 0.806877,0.18988609 1.298264,0.21532469 0.491389,0.025439 0.893933,0.1427732 0.894544,0.2607434 6.09e-4,0.1179702 0.223859,0.1562408 0.496109,0.085046 0.27225,-0.071195 0.495,-0.040892 0.495,0.067339 0,0.1707574 1.386193,0.5728475 2.10375,0.6102298 0.136125,0.00709 0.303187,0.069625 0.37125,0.1389637 0.159021,0.1620015 2.729442,1.1889747 3.2175,1.2855036 0.204187,0.040385 0.426937,0.1356671 0.495,0.211739 0.06806,0.076072 0.903375,0.5661991 1.85625,1.0891713 3.210639,1.7621148 5.676021,3.6748656 8.963012,6.9538987 1.798783,1.794425 3.221801,3.311304 3.162265,3.370841 -0.05954,0.05954 0.21661,0.463924 0.613659,0.898638 0.397052,0.434714 0.644658,0.793931 0.550237,0.79826 -0.09442,0.0043 0.03065,0.161249 0.277933,0.348711 0.247282,0.187462 0.43759,0.409421 0.422906,0.493242 -0.01469,0.08382 0.328524,0.746297 0.762688,1.47217 l 0.789389,1.31977 2.600582,0.159118 c 1.430319,0.08751 3.342428,0.159118 4.249124,0.159118 1.747945,0 4.381105,0.388851 5.878015,0.868035 0.30239,0.0968 0.62407,0.154331 0.71483,0.127845 0.0908,-0.02649 0.23316,0.0616 0.31644,0.195743 0.0833,0.134146 0.37417,0.282878 0.64642,0.330514 0.27225,0.04764 0.55069,0.155183 0.61875,0.23899 0.20188,0.248585 2.2275,1.231168 2.2275,1.080512 0,-0.07613 0.23962,0.08481 0.53248,0.357661 0.29287,0.272846 0.61532,0.444886 0.71657,0.382313 0.10124,-0.06257 0.25406,0.06859 0.33959,0.291483 0.0855,0.222888 0.2224,0.338359 0.30416,0.256602 0.0818,-0.08176 0.35387,0.09721 0.60469,0.397701 0.25082,0.300494 0.45975,0.482751 0.46428,0.405016 0.005,-0.07774 0.98335,0.813265 2.17516,1.98 1.19182,1.166735 2.14374,2.185769 2.11537,2.264524 -0.0284,0.07875 0.27106,0.49641 0.66537,0.928125 0.39431,0.431714 0.67102,0.784936 0.6149,0.784936 -0.0561,0 0.2733,0.640406 0.73204,1.423125 1.13639,1.938959 2.48998,5.271688 3.26415,8.036783 0.56722,2.025946 0.66159,2.932459 0.80146,7.698557 0.0872,2.971217 0.0758,5.549353 -0.0253,5.729189 -0.10111,0.179838 -0.23393,0.811654 -0.29517,1.404038 -0.0612,0.592381 -0.13469,1.132745 -0.16324,1.200808 -0.0285,0.06806 -0.0733,0.235125 -0.0994,0.37125 -0.0261,0.136125 -0.177,0.563127 -0.33533,0.948895 -0.15832,0.385766 -0.23068,0.793911 -0.1608,0.906986 0.0699,0.113075 0.005,0.246367 -0.14478,0.296206 -0.14952,0.04984 -0.28943,0.393396 -0.31092,0.763465 -0.0215,0.370067 -0.11396,0.672928 -0.2055,0.673022 -0.0915,9.7e-5 -0.29259,0.382435 -0.44678,0.84964 -0.15419,0.467206 -0.8204,1.748019 -1.48045,2.84625 -0.66006,1.098232 -1.15597,1.996786 -1.10204,1.996786 0.42799,0 -4.89808,4.878809 -6.4568,5.914589 -1.089,0.723648 -2.06183,1.443061 -2.16184,1.598694 -0.10001,0.155631 -0.18354,0.207039 -0.18562,0.114236 -0.002,-0.0928 -1.03401,0.310858 -2.29317,0.897022 -1.25915,0.586162 -3.57018,1.479431 -5.13562,1.985039 -1.565438,0.505608 -3.013313,0.979499 -3.2175,1.053088 -0.320005,0.115332 -2.185462,0.106261 -2.807687,-0.01365 -0.114914,-0.02215 -0.562177,-0.374391 -0.993916,-0.782766 -0.660614,-0.624863 -0.796252,-0.950195 -0.856124,-2.053438 -0.06511,-1.199789 -0.0012,-1.380912 0.754125,-2.13621 0.453897,-0.453898 1.40652,-1.031711 2.116936,-1.28403 0.710417,-0.252316 1.291666,-0.550564 1.291666,-0.662773 0,-0.112206 0.09831,-0.143255 0.218461,-0.069 0.224522,0.138761 2.245127,-0.493708 3.913989,-1.22512 2.59787,-1.138565 4.28255,-1.98701 4.28255,-2.156795 0,-0.103888 0.13922,-0.190384 0.30937,-0.192208 0.17016,-0.0018 0.63856,-0.25242 1.04088,-0.556875 1.07191,-0.811149 4.63668,-4.391776 5.24482,-5.268149 0.66919,-0.964344 1.79512,-3.182145 1.90628,-3.754894 0.047,-0.242283 0.21468,-0.75614 0.37259,-1.141908 0.15791,-0.385766 0.2288,-0.795728 0.15754,-0.911023 -0.0712,-0.115295 -0.0275,-0.272701 0.0972,-0.349792 0.32465,-0.200643 0.38546,-1.348157 0.37698,-7.113801 -0.005,-3.555961 -0.0965,-5.223274 -0.29946,-5.467772 -0.16057,-0.193468 -0.2341,-0.409598 -0.16341,-0.480289 0.0707,-0.07069 -0.003,-0.450254 -0.16393,-0.843477 -0.16085,-0.393223 -0.32456,-0.877252 -0.3638,-1.075618 -0.0392,-0.198366 -0.17585,-0.588179 -0.30359,-0.86625 -0.12773,-0.278071 -0.44048,-1.004164 -0.695,-1.613542 -1.16259,-2.783573 -5.04336,-7.337352 -6.9856,-8.197073 -0.42812,-0.189504 -0.7784,-0.416209 -0.7784,-0.503787 0,-0.162961 -2.8152,-1.421857 -3.47214,-1.552664 -0.20026,-0.03988 -0.58459,-0.166743 -0.85407,-0.281924 -0.59908,-0.256061 -8.004265,-0.304096 -9.497826,-0.06161 -1.318482,0.214061 -2.77572,0.671253 -3.191589,1.001329 -0.170156,0.13505 -0.309375,0.170228 -0.309375,0.07817 0,-0.09206 -1.447875,0.581222 -3.2175,1.496182 -1.769625,0.914961 -3.2175,1.75627 -3.2175,1.869578 0,0.113306 -0.146062,0.206012 -0.324582,0.206012 -0.178519,0 -0.563673,0.22275 -0.855902,0.495 -0.292225,0.27225 -0.604585,0.495 -0.694133,0.495 -0.08955,0 -0.72169,0.410253 -1.404763,0.911674 l -1.24195,0.911673 -1.76121,-1.90354 c -2.940183,-3.177868 -2.821136,-3.00844 -2.394092,-3.407358 0.205306,-0.191785 0.378193,-0.293013 0.38419,-0.22495 0.01179,0.133808 1.804953,-1.267462 2.756885,-2.154376 0.322096,-0.300094 0.589169,-0.467156 0.593497,-0.37125 0.0043,0.09591 0.161252,-0.02795 0.348713,-0.27523 0.187461,-0.247282 0.395569,-0.414345 0.462459,-0.37125 0.159947,0.103049 4.230146,-2.307685 4.337722,-2.569183 0.04566,-0.110987 0.184877,-0.138841 0.309375,-0.0619 0.124497,0.07694 0.226361,0.01538 0.226361,-0.136814 0,-0.152193 0.111375,-0.20788 0.2475,-0.12375 0.136125,0.08413 0.2475,0.02844 0.2475,-0.12375 0,-0.152193 0.111375,-0.20788 0.2475,-0.12375 0.136125,0.08413 0.2475,0.06142 0.2475,-0.05045 0,-0.11188 0.243389,-0.313359 0.540864,-0.447732 0.695985,-0.314385 0.813399,-0.710945 0.34822,-1.176122 -0.203781,-0.203782 -0.304187,-0.436838 -0.223124,-0.517902 0.08106,-0.08106 -0.03561,-0.217613 -0.259286,-0.303444 -0.22367,-0.08583 -0.406674,-0.26347 -0.406674,-0.394754 0,-0.131285 -0.139219,-0.388187 -0.309375,-0.570894 -0.170156,-0.182707 -0.583996,-0.703783 -0.919646,-1.157947 -1.233381,-1.668879 -6.134268,-6.283932 -7.029903,-6.619903 -0.149042,-0.05591 -0.420149,-0.250815 -0.60246,-0.433125 -0.182311,-0.18231 -0.490579,-0.331473 -0.685045,-0.331473 -0.194463,0 -0.353571,-0.09489 -0.353571,-0.210861 0,-0.216687 -2.337655,-1.3478022 -4.640625,-2.2454488 C 68.399719,8.7738834 67.815,8.6136727 67.815,8.6964166 c 0,0.082744 -0.139219,0.041506 -0.309375,-0.09164 C 67.150564,8.3269449 65.461874,7.8900406 63.702369,7.6207849 62.145154,7.3824849 54.41678,7.3705928 52.965,7.6042625 50.403989,8.0164673 50.101903,8.073939 49.7475,8.2163911 49.543312,8.2984641 49.1535,8.4040132 48.88125,8.4509447 47.929563,8.6149998 44.3025,10.09658 44.3025,10.321269 c 0,0.124682 -0.111375,0.157861 -0.2475,0.07373 -0.136125,-0.08413 -0.2475,-0.03501 -0.2475,0.109143 0,0.144159 -0.08353,0.238445 -0.185625,0.209525 -0.19382,-0.0549 -1.332211,0.512243 -1.546875,0.770653 -0.06806,0.08193 -0.411202,0.296752 -0.76253,0.477376 -1.564713,0.804446 -7.65247,6.664542 -7.65247,7.366292 0,0.191543 -0.111375,0.348261 -0.2475,0.348261 -0.136125,0 -0.2475,0.167062 -0.2475,0.37125 0,0.204187 -0.09164,0.37125 -0.203643,0.37125 -0.339652,0 -2.424263,4.190839 -3.231679,6.496875 -0.417043,1.191094 -0.692065,2.165625 -0.611162,2.165625 0.0809,0 0.02572,0.146243 -0.122619,0.324982 -0.148339,0.178742 -0.329744,0.707774 -0.40312,1.175625 -0.07338,0.467854 -0.264511,1.427721 -0.424743,2.133037 l -0.291329,1.282394 -1.191827,0.163917 c -0.655504,0.09016 -1.255332,0.266676 -1.332953,0.39227 -0.07762,0.125591 -0.22895,0.174072 -0.336291,0.107734 -0.107338,-0.06634 -0.572985,-0.006 -1.034772,0.134068 -0.461787,0.140076 -1.11805,0.307133 -1.458362,0.371233 -0.340313,0.0641 -0.785813,0.18584 -0.99,0.270528 -0.204188,0.08469 -0.519166,0.184263 -0.699953,0.221282 -0.180786,0.03702 -0.514911,0.149794 -0.7425,0.250616 -0.227588,0.100821 -0.469485,0.202551 -0.537547,0.226064 -1.613794,0.557511 -4.455,1.929686 -4.455,2.151564 0,0.109829 -0.11933,0.199686 -0.265179,0.199686 -0.145848,0 -0.411944,0.139219 -0.591325,0.309375 -0.17938,0.170156 -0.644769,0.530308 -1.034196,0.800341 -1.370532,0.950333 -3.071702,2.994086 -4.0472619,4.862303 -0.5423173,1.038547 -1.0260466,2.09661 -1.0749541,2.35125 -0.048908,0.25464 -0.2336474,0.797106 -0.4105327,1.205481 -0.2940805,0.678944 -0.4811677,6.744553 -0.2633684,8.53875 0.1090014,0.89794 0.7815728,3.042314 1.0673707,3.403125 0.1347811,0.170156 0.1741284,0.309375 0.087439,0.309375 -0.2170897,0 1.3437727,3.073725 1.6129254,3.176249 0.11912,0.04538 0.216582,0.19255 0.216582,0.327054 0,0.134504 0.139219,0.390015 0.309375,0.5678 0.170156,0.177784 0.475113,0.587485 0.677681,0.910446 0.458362,0.730781 3.461756,3.680951 3.747359,3.680951 0.11546,0 0.406106,0.167973 0.645881,0.373274 0.239775,0.205304 0.499597,0.344523 0.577383,0.309375 0.07779,-0.03514 0.337358,0.132032 0.576828,0.3715 0.23947,0.239471 0.537796,0.372117 0.662946,0.294768 0.125151,-0.07735 0.227547,-0.03476 0.227547,0.09464 0,0.194884 0.388889,0.365674 1.485,0.652175 0.06806,0.01779 0.3465,0.106029 0.61875,0.196087 0.27225,0.09006 0.829125,0.233684 1.2375,0.319168 1.15826,0.242461 10.635602,0.58927 15.84,0.57964 2.586375,-0.0048 4.869562,0.04625 5.07375,0.113415 0.204187,0.06717 1.141381,0.175193 2.082655,0.24006 1.553603,0.107066 1.782297,0.194433 2.480257,0.947541 0.620839,0.669894 0.760261,1.02019 0.724215,1.819603 -0.06159,1.365804 -0.138335,1.596434 -0.731303,2.1975 -1.330743,1.34892 -0.479672,1.279697 -13.713324,1.115384 z"
     id="path12" /><path
     style="fill:#ff2a2a;stroke-width:0.2475"
     d="m 75.688594,76.679679 c 0.178664,-0.07149 0.392132,-0.0627 0.474375,0.01954 0.08224,0.08224 -0.06394,0.140738 -0.324844,0.129991 -0.288324,-0.01188 -0.34697,-0.07052 -0.149531,-0.149531 z"
     id="path13" /><path
     style="fill:#ff2a2a;stroke-width:0.2475"
     d="M 27.34875,78.319157 C 19.179726,78.106634 17.948695,77.914888 15.345,76.449456 14.596312,76.028074 13.473787,75.45904 12.850498,75.184939 11.094459,74.412689 6.4048609,69.615874 4.3793771,66.520144 3.4680947,65.12735 2.7225,63.785282 2.7225,63.537769 2.7225,63.290259 2.615975,62.981226 2.4857777,62.851028 2.3555804,62.720831 1.9550719,61.445587 1.5957588,60.017153 0.80375543,56.868577 0.53016148,51.86011 0.96973034,48.556951 1.5629046,44.099513 3.7477522,39.871978 7.2723425,36.361816 10.568756,33.078897 14.007745,31.000061 18.93375,29.31261 c 1.6335,-0.55957 3.088786,-1.11566 3.233969,-1.235752 0.145183,-0.120092 0.581239,-1.129758 0.969015,-2.243702 1.078684,-3.098685 3.878126,-8.554567 5.51493,-10.748145 1.960685,-2.627629 5.8833,-6.3671918 8.473336,-8.0779158 4.604685,-3.0414057 8.37785,-4.6855297 12.99375,-5.6619146 2.95094,-0.62420183 12.995844,-0.69142058 15.639017,-0.1046536 4.231951,0.9394651 7.441093,2.1674285 10.786125,4.1272612 3.35951,1.9683165 5.040726,3.3094333 8.472358,6.7584548 3.093515,3.109192 4.447397,4.77509 5.486993,6.751535 0.338397,0.643347 0.760333,1.319473 0.937632,1.502502 0.230098,0.237532 1.647298,0.397527 4.951428,0.558992 5.786557,0.282776 7.792287,0.681332 10.651447,2.116535 3.29929,1.656129 3.09979,1.524552 5.64054,3.720146 3.39235,2.931497 5.36785,5.846193 7.35804,10.856202 1.48613,3.741113 1.73911,5.085273 1.98949,10.570779 0.35887,7.862179 -0.29569,10.862575 -3.6846,16.889566 -1.37741,2.449643 -1.38853,2.462823 -4.19751,4.973824 -4.30365,3.847138 -6.95935,5.29353 -13.81385,7.52354 -3.674886,1.195568 -4.75759,1.197803 -6.02652,0.01245 -0.664255,-0.62051 -0.75434,-0.867515 -0.75434,-2.06836 0,-1.234045 0.0763,-1.4279 0.802516,-2.038972 0.92863,-0.781392 2.059299,-1.294225 5.097965,-2.312271 2.079959,-0.696854 4.861759,-1.957513 7.166789,-3.247866 0.58494,-0.327448 2.208,-1.76918 3.60681,-3.203851 2.88961,-2.963691 4.0047,-4.878878 4.88354,-8.387621 0.46491,-1.856136 0.50773,-2.6124 0.42042,-7.425 -0.0959,-5.284499 -0.10833,-5.390785 -0.90398,-7.70962 -2.12549,-6.194544 -6.21954,-10.712273 -11.59027,-12.789699 -1.49344,-0.577672 -2.12941,-0.665765 -5.529277,-0.765911 -2.112955,-0.06224 -4.563811,-7.45e-4 -5.446347,0.136652 -2.005863,0.312286 -5.146958,1.550459 -8.001098,3.153918 -2.753049,1.546667 -2.65043,1.483903 -4.840276,2.96036 l -1.830344,1.234069 -2.065464,-2.224069 c -1.136003,-1.223239 -2.065578,-2.360428 -2.065722,-2.527089 -1.43e-4,-0.166662 0.306019,-0.461751 0.680363,-0.655754 0.374344,-0.194005 1.188215,-0.800019 1.808601,-1.346699 1.032184,-0.909551 2.042553,-1.540245 7.34627,-4.58569 0.985461,-0.565861 1.79293,-1.145853 1.794375,-1.28887 0.004,-0.396619 -0.592418,-1.592101 -0.79539,-1.594287 -0.0986,-0.0011 -0.354918,-0.341597 -0.569599,-0.756745 C 83.022588,19.187604 78.324545,14.321295 76.650272,13.0381 73.223375,10.411662 68.121539,8.2262956 63.855,7.557258 62.970187,7.4185103 60.46425,7.3045959 58.28625,7.3041148 c -6.065082,-0.00134 -9.885244,0.7808519 -14.053738,2.8775502 -2.961127,1.489408 -4.233384,2.419746 -7.11117,5.200048 -2.947569,2.847719 -4.851077,5.446859 -6.271059,8.562805 -0.884015,1.939846 -2.248889,5.936904 -2.514661,7.364232 -0.405311,2.17673 -0.630277,2.7225 -1.122198,2.7225 -1.077179,0 -5.859543,1.292752 -8.272678,2.236239 -5.688187,2.223971 -9.2228088,5.673354 -11.048791,10.782345 -0.448513,1.254914 -0.5267097,2.069001 -0.5562884,5.791416 -0.032988,4.151473 -0.00583,4.411942 0.6544058,6.275303 0.8230942,2.323008 1.4145175,3.516507 2.5802236,5.20693 1.243771,1.803626 3.901712,4.447815 5.10728,5.080853 0.565771,0.297082 1.369593,0.743089 1.786271,0.991121 2.126849,1.266037 6.500479,1.729075 16.443653,1.740898 2.926687,0.0035 6.769125,0.136917 8.53875,0.29653 3.131273,0.282424 3.239057,0.311656 4.021875,1.090784 0.620797,0.617866 0.804375,1.011384 0.804375,1.724243 0,1.037008 -0.761367,2.443417 -1.568997,2.898272 -0.66599,0.375084 -7.948111,0.443711 -18.354753,0.172973 z"
     id="path14" /><path
     style="fill:#ff2a2a;stroke-width:0.2475"
     d="M 26.85375,78.317578 C 18.883534,78.093271 18.23958,77.970739 14.167516,75.903619 11.925126,74.765305 11.301744,74.290228 8.8270768,71.833685 5.6201654,68.650263 3.1378849,65.092208 2.2845938,62.455816 1.2431329,59.238038 0.74199584,56.042833 0.75113478,52.678623 0.76145884,48.878134 1.1601819,46.465076 2.2129776,43.831597 4.8335844,37.276368 10.705343,32.155282 18.81,29.356413 c 1.701562,-0.587619 3.212618,-1.196202 3.357901,-1.352407 0.145283,-0.156202 0.6323,-1.286381 1.08226,-2.511506 1.191326,-3.243672 3.80742,-8.271979 5.445875,-10.467334 C 30.49296,12.617481 34.45422,8.8034094 36.892647,7.1331163 41.105891,4.2470943 45.508845,2.3202974 50.11875,1.3451806 53.10336,0.71385645 62.968975,0.65625785 65.835,1.2534242 c 5.16282,1.0757275 10.112756,3.3092794 14.305277,6.4549484 3.973224,2.9811304 8.805775,8.1887554 10.416882,11.2253774 0.325002,0.612562 0.724689,1.258868 0.8882,1.436234 0.20717,0.224729 1.710099,0.395513 4.957962,0.563395 6.121159,0.316403 7.738109,0.66335 11.226329,2.408822 3.16925,1.585862 6.00607,3.881373 8.29,6.708143 2.47239,3.060028 5.26671,9.542231 5.82368,13.509656 0.46249,3.294435 0.55108,9.728324 0.16528,12.00375 -0.60515,3.569056 -1.36203,5.595606 -3.53259,9.458472 -1.35386,2.409413 -2.45415,3.62886 -5.77166,6.396692 -3.33832,2.785197 -6.04997,4.150743 -12.23315,6.160439 -3.737748,1.214866 -4.906956,1.216727 -6.113949,0.0097 C 93.656529,76.988357 93.555,76.690454 93.555,75.52854 c 0,-1.227944 0.07701,-1.423088 0.802516,-2.033561 0.935966,-0.787563 2.057198,-1.293522 5.199517,-2.346295 1.255757,-0.420718 3.509677,-1.394898 5.008707,-2.164843 2.44597,-1.256318 3.00507,-1.679978 5.45116,-4.130622 2.96908,-2.974616 4.15028,-4.873851 5.00779,-8.051969 0.64617,-2.394894 0.62909,-12.334675 -0.0249,-14.47875 -1.1804,-3.869969 -2.81962,-6.718286 -5.46506,-9.49609 -1.8234,-1.914628 -3.8562,-3.305174 -6.32724,-4.328181 l -1.85625,-0.768485 -4.82625,-0.0049 c -4.460599,-0.0045 -4.966885,0.04111 -6.6825,0.602017 -2.44777,0.800286 -6.328474,2.806026 -9.589848,4.956514 -1.449565,0.955815 -2.71583,1.737846 -2.813922,1.737846 -0.298692,0 -4.17873,-4.293405 -4.17873,-4.623919 0,-0.169765 0.250594,-0.439127 0.556875,-0.598581 0.306281,-0.159454 1.121222,-0.767141 1.810977,-1.350417 1.136911,-0.961404 2.247949,-1.657881 7.273993,-4.559855 0.878952,-0.507496 1.703537,-1.089882 1.832413,-1.294192 0.365553,-0.57952 -1.731614,-3.357634 -5.021597,-6.652104 C 76.496399,12.721532 75.010585,11.642696 71.5275,9.9990047 69.21958,8.9098819 65.842276,7.8580292 63.693712,7.5591913 61.039301,7.189997 54.973423,7.2435904 52.2225,7.660542 48.328662,8.2507231 44.425356,9.7772783 41.085,12.016341 c -1.999746,1.340443 -5.981781,5.204175 -7.464518,7.242753 -2.244835,3.086369 -4.053976,7.192194 -5.145832,11.678406 -0.768384,3.157125 -0.743186,3.09375 -1.230068,3.09375 -0.243134,0 -1.813215,0.339105 -3.48907,0.753568 C 15.08015,36.930358 9.9573324,40.910809 7.8899428,47.112434 7.4142164,48.53949 7.3388702,49.315095 7.321395,52.965 c -0.019158,4.001327 0.013721,4.303087 0.6709797,6.158221 0.8671276,2.447492 1.1835427,3.063881 2.7156483,5.290181 1.320891,1.919385 3.819378,4.408076 5.01935,4.999673 0.402257,0.198317 0.898439,0.490216 1.102627,0.648668 0.685851,0.532224 3.239998,1.346952 5.030674,1.604698 0.976567,0.140566 6.174888,0.362234 11.551826,0.492597 11.517289,0.279235 12.189239,0.352616 13.158095,1.436953 1.170813,1.310366 0.74278,3.643428 -0.831726,4.533433 -0.70025,0.395822 -8.680815,0.475333 -18.885119,0.188154 z"
     id="path15" /><path
     style="fill:#ef4545;stroke-width:0.2475;fill-opacity:1"
     d="M 26.4825,78.316348 C 18.925898,78.089769 18.190073,77.945608 14.167516,75.903619 11.926198,74.765849 11.300331,74.289053 8.8251223,71.833685 6.8740662,69.898269 5.5360233,68.299842 4.4251715,66.5775 2.7239847,63.93986 2.48199,63.37685 1.5528806,59.895 0.80482384,57.091647 0.52508199,51.467452 0.97880745,48.353293 1.5730138,44.274936 3.7297458,39.971918 6.7628157,36.813291 9.528628,33.932985 14.004767,30.962186 17.124758,29.936105 c 0.722695,-0.237677 2.168076,-0.756283 3.211957,-1.152464 l 1.897964,-0.720324 0.922787,-2.399158 C 24.407475,22.414249 26.50551,18.238386 28.093314,15.84 29.664459,13.466775 34.216627,8.9614268 36.892647,7.1311697 41.115695,4.2428247 45.5118,2.3196727 50.11875,1.3451806 53.05508,0.7240693 63.066653,0.65516035 65.83273,1.2370224 c 5.230242,1.1002153 9.879653,3.1901492 14.163967,6.366775 3.94023,2.9215016 9.073766,8.3883496 10.543473,11.2280436 0.991203,1.91515 0.675059,1.804662 5.981058,2.090305 6.015912,0.323861 7.567842,0.662638 11.113692,2.426068 3.1863,1.584617 6.22595,4.04961 8.39114,6.804765 2.35717,2.999443 5.11975,9.378394 5.69909,13.159521 0.49698,3.243539 0.60111,9.684101 0.19609,12.1275 -0.60343,3.640351 -1.34106,5.646215 -3.50619,9.534556 -1.57825,2.834345 -4.29514,5.558687 -8.46126,8.484444 -2.11917,1.48824 -9.92114,4.585041 -12.651242,5.021604 C 95.059815,78.839231 93.555,77.632793 93.555,75.476122 c 0,-1.168831 0.08422,-1.376733 0.802516,-1.981143 0.912723,-0.768005 2.143417,-1.331921 4.856871,-2.225466 1.039153,-0.342193 3.266813,-1.301862 4.950373,-2.132596 2.7995,-1.381391 3.26836,-1.716195 5.48815,-3.918972 5.06048,-5.021701 6.15619,-8.245903 5.84622,-17.202945 -0.16679,-4.819679 -0.45344,-6.170571 -1.99505,-9.402216 -2.04276,-4.282195 -5.04792,-7.461135 -8.88321,-9.396899 -2.78563,-1.405973 -4.11432,-1.620687 -9.33337,-1.50827 -3.125143,0.06732 -4.128102,0.181559 -5.410726,0.616312 -2.303928,0.780932 -6.97481,3.196141 -9.797773,5.066209 -1.354236,0.897113 -2.542431,1.631114 -2.640431,1.631114 -0.270471,0 -4.17857,-4.277612 -4.17857,-4.573657 0,-0.142119 0.741319,-0.81397 1.647375,-1.492996 2.367565,-1.77433 2.897235,-2.122182 5.653875,-3.713091 3.385033,-1.953567 4.33125,-2.56692 4.33125,-2.807588 0,-0.619072 -2.461826,-3.726523 -4.95,-6.248159 C 76.066207,12.257337 72.704385,10.151714 67.815,8.5898959 64.82693,7.6354161 62.396854,7.301071 58.453966,7.3019472 c -7.2255,0.00161 -12.291746,1.3731565 -17.238004,4.6667318 -2.182007,1.452938 -6.650778,5.857106 -8.040968,7.924726 -2.027124,3.014925 -4.247338,8.435116 -4.97942,12.156219 -0.153121,0.778303 -0.350611,1.521088 -0.438865,1.650629 -0.08825,0.129542 -1.329897,0.493117 -2.759209,0.807944 -9.297834,2.047993 -14.539995,5.832729 -16.9510525,12.238318 -0.5749732,1.527565 -0.6292599,2.0186 -0.6682302,6.044309 -0.041948,4.33328 -0.033823,4.405889 0.73564,6.573892 1.9223677,5.416379 6.2202697,10.00128 10.9343457,11.664504 1.828216,0.645033 4.777143,0.873562 14.488047,1.122767 11.420204,0.293072 12.07034,0.365097 13.034345,1.444004 1.170752,1.3103 0.743364,3.640567 -0.831726,4.534868 -0.697139,0.39582 -9.434681,0.479984 -19.256369,0.185489 z"
     id="path16" /><path
     style="fill:#ff2a2a;stroke-width:0.2475"
     d="m 56.313856,113.66437 c 0.09388,-0.4424 1.040336,-4.47975 2.103241,-8.97187 2.54838,-10.770146 3.136067,-13.664431 2.833608,-13.955166 -0.133075,-0.127918 -2.22006,-0.357697 -4.637743,-0.51062 -4.770376,-0.301737 -5.232095,-0.38764 -5.022288,-0.934387 0.07652,-0.199401 1.472274,-4.723559 3.101682,-10.053687 4.489604,-14.686412 5.144167,-16.769093 5.32712,-16.949769 0.161269,-0.159263 21.163427,-0.122219 21.323255,0.03761 0.0426,0.04259 -0.854296,1.85181 -1.99309,4.020481 -3.243322,6.176445 -5.216391,10.220039 -5.062134,10.374295 0.180366,0.180366 5.832255,0.596764 8.748743,0.644556 4.076909,0.06681 4.021573,-0.170458 0.860728,3.690437 -1.504481,1.837687 -4.039928,4.942261 -5.634325,6.899052 -1.594397,1.95679 -3.297074,4.017227 -3.783728,4.57875 -0.486653,0.561521 -1.644279,1.967635 -2.572502,3.124698 -2.140279,2.667933 -7.262599,8.89815 -11.297985,13.74161 -1.717546,2.06148 -3.317449,4.0452 -3.55534,4.40827 -0.594568,0.90742 -0.94778,0.8385 -0.739242,-0.14426 z M 64.726699,99.498413 C 67.197511,96.157378 76.4775,81.980672 76.4775,81.547136 c 0,-0.477186 -1.28899,-0.73641 -3.685169,-0.74111 -0.76372,-0.0015 -1.811692,-0.07264 -2.328827,-0.1581 -0.901244,-0.148932 -0.93347,-0.187317 -0.77691,-0.925401 0.180339,-0.850181 0.931679,-3.026033 2.787081,-8.071275 0.675815,-1.837688 1.305119,-3.703219 1.398455,-4.145625 l 0.1697,-0.804375 h -5.413534 -5.413533 l -0.273498,0.928125 c -0.150424,0.510469 -1.242598,3.656812 -2.427054,6.991875 -3.683338,10.371147 -3.869893,10.987031 -3.387091,11.181979 0.229146,0.09253 1.821116,0.176058 3.537711,0.185625 1.716595,0.0096 3.650636,0.08998 4.29787,0.178693 l 1.176788,0.161297 -0.142783,1.04172 c -0.11594,0.845871 -2.339051,10.663329 -3.011729,13.300056 -0.300917,1.17953 0.303227,0.77293 1.741722,-1.172207 z"
     id="path17" /><path
     style="fill:#ff2a2a;stroke-width:0.2475"
     d="m 56.441622,114.01689 c -0.0064,-0.18045 0.92653,-4.35702 2.073161,-9.28125 3.043869,-13.071956 3.197884,-13.924744 2.555842,-14.151868 -0.170156,-0.06019 -2.306091,-0.280694 -4.746522,-0.490003 -2.44043,-0.209311 -4.49085,-0.434266 -4.556488,-0.499903 -0.123797,-0.123797 8.050701,-26.858218 8.283765,-27.091776 0.198574,-0.198994 17.273062,-0.312352 19.323204,-0.128287 l 1.783334,0.160111 -3.453959,6.779027 C 75.804281,73.041405 74.25,76.248322 74.25,76.439421 c 0,0.489504 0.79389,0.602094 6.483683,0.919515 2.763788,0.154186 5.115231,0.365264 5.22543,0.469064 0.1102,0.1038 -0.49742,1.067526 -1.350266,2.141613 -1.601718,2.017229 -15.495457,18.962 -22.717886,27.706687 -2.254841,2.73008 -4.400762,5.3474 -4.768714,5.81625 -0.367952,0.46885 -0.674233,0.7048 -0.680625,0.52434 z m 7.761156,-13.6953 C 65.818091,98.43446 76.4775,82.197468 76.4775,81.624065 c 0,-0.528903 -0.927515,-0.766843 -3.834363,-0.983649 -2.204949,-0.164456 -2.734924,-0.278708 -2.796119,-0.602787 -0.04153,-0.219929 0.876467,-3.100757 2.039988,-6.40184 1.163522,-3.301082 2.115494,-6.211796 2.115494,-6.468253 0,-0.442605 -0.276928,-0.466286 -5.452768,-0.466286 -4.147029,0 -5.4753,0.07408 -5.546865,0.309375 -0.05175,0.170156 -1.440445,4.180429 -3.085982,8.911717 C 58.271348,80.653631 56.925,84.84167 56.925,85.229096 v 0.704412 l 4.228311,0.175875 c 2.325572,0.09673 4.371836,0.23095 4.547254,0.298264 0.392364,0.150564 0.198783,1.243745 -1.582336,8.935674 -0.689276,2.976705 -1.253229,5.546229 -1.253229,5.710059 0,0.55102 0.450841,0.3044 1.337778,-0.73179 z"
     id="path18" /><path
     style="fill:#ff2a2a;stroke-width:0.2475"
     d="m 56.43,113.98984 c 0,-0.18172 0.831352,-3.90722 1.84745,-8.27887 3.335964,-14.352651 3.426805,-14.866687 2.669425,-15.105346 -0.238219,-0.07506 -2.374404,-0.306818 -4.747078,-0.515005 -2.372674,-0.208188 -4.368309,-0.43288 -4.434745,-0.499317 -0.06644,-0.06644 1.135839,-4.213658 2.671722,-9.216048 4.63372,-15.092078 5.490984,-17.748423 5.790301,-17.942013 0.328358,-0.212374 19.592541,-0.237507 20.398995,-0.02661 0.496656,0.129878 0.308348,0.577754 -2.922606,6.951161 C 75.804059,73.104575 74.25,76.269886 74.25,76.391814 c 0,0.471914 1.342667,0.672431 6.333918,0.945923 2.846159,0.155953 5.261073,0.368602 5.366478,0.472554 0.28761,0.283642 0.556165,-0.05214 -18.629606,23.293459 -3.076413,3.74344 -6.687065,8.14275 -8.02367,9.77625 -2.973837,3.6344 -2.86712,3.51865 -2.86712,3.10984 z m 7.949345,-13.93797 C 66.501774,97.376593 76.4775,82.124778 76.4775,81.555094 c 0,-0.446711 -1.003721,-0.675223 -3.791737,-0.863244 -2.030084,-0.136907 -2.712401,-0.270286 -2.820235,-0.551297 -0.07824,-0.203884 0.328944,-1.72404 0.904847,-3.378125 2.482447,-7.129976 3.232125,-9.382473 3.232125,-9.711301 0,-0.290833 -0.913061,-0.349877 -5.410495,-0.349877 H 63.18151 l -2.670161,7.595707 C 57.50286,82.855088 57.019102,84.381864 57.036525,85.26375 l 0.01223,0.61875 4.33125,0.200428 c 2.382187,0.110235 4.403377,0.277297 4.491532,0.37125 0.177027,0.188667 -0.450747,3.339955 -1.992,9.999423 -0.557993,2.410982 -1.014532,4.499259 -1.014532,4.640629 0,0.56177 0.532511,0.19523 1.514345,-1.04236 z"
     id="path19" /><path
     style="fill:#ef4545;fill-opacity:1;stroke-width:0.2475"
     d="M 23.124406,78.081431 C 19.06447,77.841693 17.428998,77.422893 14.270806,75.814267 12.033252,74.674566 11.44136,74.217951 8.8977656,71.669238 2.7853811,65.544551 0.94881347,61.043741 0.96246929,52.2225 0.96700304,49.29383 1.0758575,48.091958 1.4780433,46.53 2.5091789,42.525408 4.5475496,39.129371 7.740533,36.096348 c 3.287933,-3.123213 6.349419,-4.944813 11.375406,-6.768422 1.597579,-0.57966 3.007051,-1.178578 3.13216,-1.330927 0.125109,-0.152351 0.640025,-1.335062 1.144259,-2.628249 1.263859,-3.241368 3.900987,-8.283252 5.331863,-10.193909 1.864428,-2.48958 6.421271,-6.7329566 9.151001,-8.5214978 C 41.696298,4.1497409 45.891141,2.374026 50.11875,1.4705487 52.618859,0.93625324 63.313361,0.84026732 65.797858,1.3298246 c 4.655717,0.9173849 10.118057,3.404763 14.165588,6.4505626 4.072585,3.0646548 9.132289,8.4816618 10.588681,11.3364268 0.291218,0.570837 0.761033,1.161803 1.044029,1.313259 0.282999,0.151455 2.704692,0.434404 5.381544,0.628776 6.60325,0.479474 9.19858,1.259851 13.4073,4.031366 2.00815,1.322401 5.05603,4.330417 6.33089,6.248074 2.41467,3.632194 4.60382,9.384351 5.04847,13.26529 0.41648,3.635037 0.31215,9.52899 -0.21378,12.077133 -1.26492,6.128581 -4.39816,11.074893 -9.55683,15.086954 -2.50497,1.948197 -3.60109,2.578307 -6.86097,3.944076 -6.082459,2.548325 -9.191581,3.161964 -10.463392,2.065133 -0.746982,-0.64421 -1.22189,-2.347312 -0.893801,-3.205311 0.410704,-1.074043 2.166711,-2.127228 5.224413,-3.133399 0.884812,-0.291157 3.0753,-1.243401 4.86776,-2.116096 2.80918,-1.367709 3.53693,-1.852243 5.27253,-3.510423 3.77676,-3.608305 5.46299,-6.413886 6.1181,-10.17942 0.50456,-2.900213 0.323,-11.343019 -0.29155,-13.557226 -0.49263,-1.774929 -2.31685,-5.485976 -3.46393,-7.046748 -2.09072,-2.844728 -5.39167,-5.396562 -8.6813,-6.711186 -1.37414,-0.54914 -1.79429,-0.587904 -6.42036,-0.592329 -4.156815,-0.004 -5.168127,0.06823 -6.31125,0.450623 -2.143427,0.717008 -6.562005,2.951547 -9.600783,4.85525 -1.530364,0.958728 -2.880424,1.74314 -3.000135,1.74314 -0.331843,0 -3.981582,-3.956599 -3.981582,-4.316343 0,-0.465216 3.457478,-2.940674 7.453027,-5.336157 1.929923,-1.157063 3.627216,-2.292016 3.771764,-2.522119 0.366188,-0.582934 -0.955239,-2.445699 -4.056518,-5.718312 -3.960101,-4.178883 -7.331675,-6.459566 -11.916872,-8.0611031 -3.38411,-1.1820161 -5.674002,-1.5172844 -10.308947,-1.509354 -6.362542,0.010886 -9.945367,0.733195 -14.314071,2.8857631 -3.827951,1.886126 -8.935106,6.475488 -11.335693,10.186414 -1.809109,2.796598 -3.692015,7.441901 -4.691427,11.574183 l -0.426079,1.76172 -3.403718,0.873571 C 15.76339,36.777547 11.401455,39.712617 8.7593386,45.034894 L 7.5652867,47.440191 7.3311725,51.03424 c -0.1545435,2.372503 -0.1484109,4.243187 0.018044,5.503957 0.7577096,5.739092 5.9412045,12.42306 11.1437885,14.369595 2.098227,0.785048 4.10212,0.963166 15.290745,1.359122 5.71725,0.202331 10.80759,0.484538 11.311866,0.62713 1.980332,0.559966 2.615507,2.931217 1.207446,4.507675 L 45.581125,78.21 35.969937,78.24121 C 30.683785,78.25838 24.903295,78.18647 23.124406,78.081434 Z"
     id="path20" /><path
     style="fill:#ef4545;fill-opacity:1;stroke-width:0.2475"
     d="m 56.43,113.98236 c 0,-0.18974 0.939146,-4.41801 2.086992,-9.39617 C 60.802162,94.675509 61.38,91.977603 61.38,91.218899 c 0,-0.611857 -0.240513,-0.670754 -4.08375,-1.000036 -4.79868,-0.411142 -5.56875,-0.521324 -5.56875,-0.796782 0,-0.281387 4.604257,-15.386645 6.850132,-22.473331 0.75495,-2.382188 1.49942,-4.413076 1.654377,-4.513085 0.333421,-0.21519 19.585003,-0.249482 20.38009,-0.0363 0.517851,0.138847 0.368166,0.500861 -2.918184,7.057732 -1.905216,3.801258 -3.405047,7.006815 -3.332956,7.12346 0.209605,0.339148 1.436669,0.4836 6.571541,0.773615 2.654437,0.14992 4.912491,0.356405 5.017896,0.458854 0.284913,0.276919 0.302193,0.255189 -16.175522,20.339106 -1.962743,2.392288 -5.616121,6.847288 -8.118618,9.899998 -5.386895,6.57128 -5.226256,6.389 -5.226256,5.93023 z m 7.928685,-13.93049 c 1.182956,-1.476855 8.897483,-13.055779 10.887933,-16.341964 0.926967,-1.530401 1.238396,-2.250142 1.05359,-2.434947 -0.144295,-0.144295 -1.583464,-0.375643 -3.198156,-0.514108 -1.614691,-0.138464 -3.041698,-0.351484 -3.171126,-0.473376 -0.28112,-0.264752 0.171109,-1.79151 2.442689,-8.246705 0.906608,-2.576327 1.5918,-4.831671 1.522649,-5.011875 -0.09893,-0.257822 -1.261369,-0.327645 -5.454746,-0.327645 -2.93096,0 -5.329018,0.03626 -5.329018,0.08059 0,0.04432 -1.322554,3.914604 -2.939008,8.600625 -3.122763,9.052737 -3.479006,10.318254 -2.950938,10.482893 0.176658,0.05508 2.154008,0.165693 4.394113,0.24581 2.240104,0.08012 4.157399,0.230152 4.260656,0.333409 0.176999,0.176999 -0.95949,5.80972 -2.375385,11.772995 -0.350316,1.475414 -0.636938,2.784068 -0.636938,2.908118 0,0.51815 0.515197,0.14778 1.493685,-1.07382 z"
     id="path21" /><path
     style="fill:#ef4545;fill-opacity:1;stroke-width:0.2475"
     d="m 56.685321,113.51769 c -0.0043,-0.18276 1.003668,-4.80483 2.239933,-10.27125 2.564953,-11.341505 2.733695,-12.377689 2.057938,-12.637 -0.251991,-0.0967 -2.242702,-0.340879 -4.423803,-0.542624 -2.181102,-0.201742 -4.118437,-0.419992 -4.305189,-0.484998 -0.240343,-0.08366 -0.29318,-0.350044 -0.180841,-0.911741 0.213006,-1.065027 5.049958,-16.846527 6.74048,-21.992132 l 1.34932,-4.107055 5.621618,-0.146672 c 7.013395,-0.182984 14.899579,0.03769 14.901841,0.416993 8.91e-4,0.149209 -1.446984,3.236141 -3.2175,6.859848 -1.770515,3.623708 -3.219118,6.70229 -3.219118,6.841294 0,0.384976 0.779721,0.509019 4.95,0.787477 4.993738,0.333443 6.6825,0.518136 6.6825,0.730838 0,0.218426 -3.017641,3.949126 -16.870432,20.85686 C 56.37291,114.34399 56.695769,113.96159 56.685321,113.51769 Z m 7.365818,-13.01201 c 1.519912,-1.731081 10.694951,-15.540867 11.918226,-17.938683 0.3284,-0.64372 0.45814,-1.164742 0.323544,-1.299338 -0.184945,-0.184945 -4.86285,-0.932238 -5.941034,-0.949077 -0.570911,-0.0089 -0.319361,-1.05498 1.685632,-7.009633 1.097253,-3.258748 1.935225,-6.080784 1.862159,-6.271191 -0.109292,-0.284808 -1.088416,-0.334365 -5.521882,-0.279476 l -5.389034,0.06672 -2.385876,6.93 c -2.849896,8.277793 -3.853515,11.68141 -3.536143,11.992277 0.126235,0.123647 2.101492,0.331754 4.38946,0.462459 2.287967,0.130705 4.211274,0.288979 4.274015,0.35172 0.149693,0.149692 -0.684822,4.451672 -1.89528,9.770298 C 63.301467,98.675718 62.865,100.764 62.865,100.97238 c 0,0.59833 0.383529,0.44742 1.186139,-0.4667 z"
     id="path22" /><path
     style="fill:#ef4545;fill-opacity:1;stroke-width:0.2475"
     d="m 65.154375,61.565862 c 3.096844,-0.03927 8.164406,-0.03927 11.26125,0 3.096844,0.03927 0.563062,0.07141 -5.630625,0.07141 -6.193688,0 -8.727469,-0.03213 -5.630625,-0.07141 z"
     id="path23" /><path
     style="fill:#ef4545;fill-opacity:1;stroke-width:0.2475"
     d="m 73.940625,61.576581 c 0.306281,-0.05899 0.807469,-0.05899 1.11375,0 0.306281,0.05899 0.05569,0.107259 -0.556875,0.107259 -0.612563,0 -0.863156,-0.04827 -0.556875,-0.107259 z"
     id="path24" /><path
     style="fill:#ef4545;fill-opacity:1;stroke-width:0.2475"
     d=""
     id="path25" /><path
     style="fill:#ef4545;fill-opacity:1;stroke-width:0.2475"
     d=""
     id="path26" /><path
     style="fill:#ef4545;fill-opacity:1;stroke-width:0.2475"
     d=""
     id="path27" /><path
     style="fill:#ef4545;fill-opacity:1;stroke-width:0.2475"
     d=""
     id="path28" /><path
     style="fill:#ef4545;fill-opacity:1;stroke-width:0.2475"
     d=""
     id="path29" /><path
     style="fill:#ef4545;fill-opacity:1;stroke-width:0.2475"
     d=""
     id="path30" /><path
     style="fill:#ef4545;fill-opacity:1;stroke-width:0.2475"
     d=""
     id="path31" /><path
     style="fill:#ef4545;fill-opacity:1;stroke-width:0.2475"
     d=""
     id="path32" /><path
     style="fill:#ef4545;fill-opacity:1;stroke-width:0.2475"
     d="m 75.549375,62.075642 c 0.238219,-0.06225 0.628031,-0.06225 0.86625,0 0.238219,0.06225 0.04331,0.113187 -0.433125,0.113187 -0.476438,0 -0.671344,-0.05093 -0.433125,-0.113187 z"
     id="path33" /><path
     style="fill:#ef4545;fill-opacity:1;stroke-width:0.248;stroke-dasharray:none"
     d="m 75.801585,62.074735 c 0.24081,-0.06275 0.574935,-0.05862 0.7425,0.0092 0.167566,0.0678 -0.02946,0.119138 -0.437835,0.114094 -0.408375,-0.005 -0.545474,-0.06051 -0.304665,-0.123265 z"
     id="path34" /><path
     style="fill:#ef4545;fill-opacity:1;stroke-width:0.06138;stroke-dasharray:none"
     d="M 22.991501,78.081906 C 19.010163,77.860599 17.549103,77.478647 14.23125,75.791801 12.037071,74.676249 11.431918,74.208489 8.8977656,71.669238 2.7722688,65.531411 0.95197868,61.070301 0.96281277,52.2225 0.96640444,49.28932 1.0744706,48.094361 1.4776145,46.53 3.4840013,38.744402 9.5127548,32.844864 19.0575,29.326906 c 1.565437,-0.576982 2.96672,-1.174576 3.113961,-1.327983 0.14724,-0.153408 0.690532,-1.336986 1.207314,-2.630173 1.342507,-3.359468 3.953256,-8.334909 5.357381,-10.209844 1.645642,-2.197435 6.457322,-6.7736367 8.671375,-8.2470077 3.955676,-2.6323592 9.16495,-4.8143159 13.329969,-5.5833912 0.974888,-0.180014 4.046684,-0.297498 7.79625,-0.2981753 7.009638,-0.00127 8.345044,0.2089559 13.075073,2.0583061 5.043048,1.9717332 8.330031,4.2146094 13.062281,8.9130591 3.295843,3.272303 4.64929,4.904282 5.981478,7.212431 0.363989,0.630645 0.841466,1.215573 1.061062,1.29984 0.219595,0.08427 2.589266,0.322518 5.265937,0.529448 5.576749,0.431132 7.045669,0.741205 9.854769,2.080232 2.9356,1.399326 4.53495,2.493015 6.77436,4.632534 3.13529,2.99544 5.17912,6.44139 6.9335,11.690054 1.14488,3.425204 1.47168,5.907879 1.47001,11.167514 -0.003,8.078534 -2.21053,13.690574 -7.40046,18.81 -3.82347,3.771529 -7.1588,5.68057 -13.87926,7.944072 -3.602845,1.213465 -5.164456,1.284547 -6.168237,0.280769 -0.376839,-0.376839 -0.763419,-1.102321 -0.85907,-1.612186 -0.365216,-1.946768 0.78631,-2.952489 5.294807,-4.624396 6.42364,-2.382106 9.67618,-4.552431 12.90281,-8.609646 3.08057,-3.873578 3.81874,-6.802352 3.60223,-14.292363 -0.1536,-5.313768 -0.40078,-6.570962 -1.91872,-9.758524 -2.35497,-4.945283 -5.85106,-8.341757 -10.68107,-10.376742 -1.51549,-0.638508 -1.67974,-0.654323 -6.62775,-0.638147 -4.236304,0.01385 -5.278005,0.09021 -6.31125,0.462635 -2.014012,0.725937 -6.882332,3.23261 -9.639125,4.963137 -1.411854,0.886265 -2.676963,1.611391 -2.811353,1.611391 -0.350386,0 -4.008272,-3.939024 -4.008272,-4.316343 0,-0.455034 3.316448,-2.837843 7.437939,-5.344025 1.962735,-1.193492 3.672823,-2.335203 3.800197,-2.537135 C 85.354169,21.611521 78.802948,14.474792 74.988169,11.94672 71.544988,9.6649054 67.493616,8.0938848 63.661358,7.554464 61.410294,7.2376091 55.720202,7.2404412 53.065,7.5597385 45.919504,8.4190095 40.221101,11.632913 34.747968,17.890558 c -2.965793,3.390904 -5.599643,9.201116 -6.88325,15.18428 -0.12723,0.593042 -0.348262,0.703123 -2.43171,1.211037 -9.4834,2.311925 -14.217435,5.485835 -16.9647678,11.373945 -0.7703472,1.651015 -0.8890217,2.188969 -1.091991,4.95 -0.2841276,3.865046 -0.080148,6.50552 0.674979,8.737485 1.6619392,4.912273 6.1287978,9.834036 10.4825958,11.550142 1.866843,0.735842 4.385151,0.957679 15.497426,1.365165 5.581125,0.20466 10.56009,0.488788 11.064366,0.631397 1.980354,0.560043 2.615506,2.931266 1.207431,4.50771 L 45.581095,78.21 35.969922,78.23954 C 30.683778,78.25579 24.843488,78.18485 22.991501,78.081906 Z"
     id="path35" /><path
     style="fill:#ef4545;fill-opacity:1;stroke-width:0.06138;stroke-dasharray:none"
     d="M 22.89375,78.084436 C 19.068762,77.879738 17.53004,77.472554 14.276066,75.803973 11.561228,74.411855 8.7905199,72.001086 6.1897609,68.768157 2.2347205,63.851755 0.96735937,59.867087 0.96661989,52.34625 0.96631781,49.274079 1.0679833,48.115636 1.4770565,46.53 2.5193439,42.489919 4.5370772,39.146478 7.8270031,36.007961 11.0248,32.957333 13.516583,31.469434 19.018109,29.325508 l 3.230194,-1.258795 0.810352,-2.029607 c 1.337942,-3.351003 4.327646,-9.099204 5.632597,-10.829597 1.553835,-2.060419 6.10041,-6.4624987 8.283812,-8.0205429 3.503175,-2.4998143 9.207886,-4.9497147 13.638686,-5.8571627 2.095503,-0.42916877 13.378372,-0.42363143 15.345,0.00753 4.369679,0.9580062 8.699608,2.8102764 12.60412,5.3918296 3.371309,2.2290147 9.571746,8.421342 11.52713,11.512055 0.778595,1.23066 1.573125,2.204911 1.85625,2.276129 0.27225,0.06848 2.611125,0.299767 5.1975,0.513966 5.55763,0.460272 6.91345,0.763586 9.96786,2.229944 2.92458,1.404024 4.15781,2.259979 6.55279,4.548132 2.85214,2.724918 4.87452,6.007448 6.57804,10.67686 1.49802,4.106094 1.62854,5.021802 1.64042,11.50875 0.01,5.443666 -0.0364,6.111906 -0.5552,7.997336 -1.15173,4.185686 -3.18618,7.816446 -6.10357,10.892636 -3.29683,3.476291 -6.83659,5.698257 -12.36994,7.764822 -5.94727,2.22115 -8.042251,2.233037 -8.954044,0.05081 -0.91174,-2.182101 0.156908,-3.452784 4.135067,-4.916828 4.094647,-1.506908 8.330957,-3.665757 10.159967,-5.177569 3.28193,-2.71276 5.87721,-6.432064 6.75541,-9.681207 0.5344,-1.977156 0.7577,-8.174136 0.42085,-11.679332 -0.45974,-4.783895 -2.54891,-9.093586 -6.09621,-12.575668 -2.12913,-2.089989 -3.81534,-3.224663 -6.36994,-4.28641 -1.5062,-0.62601 -1.70627,-0.645218 -6.504,-0.624418 -4.40456,0.01909 -5.123859,0.08092 -6.527803,0.561067 -2.110492,0.72179 -5.43958,2.410992 -9.123817,4.629495 -1.66602,1.003209 -3.130168,1.824016 -3.253665,1.824016 -0.347119,0 -3.988465,-3.957839 -3.988465,-4.335128 0,-0.442352 3.274304,-2.812657 7.157739,-5.181568 1.72262,-1.050804 3.396921,-2.110356 3.72067,-2.354561 l 0.588635,-0.444007 -0.643275,-1.081743 C 83.29145,19.628157 79.762889,15.80592 77.259409,13.716305 75.003575,11.833396 72.09002,10.123717 69.3,9.0457087 66.377324,7.9164459 64.118701,7.5137018 60.01875,7.3907336 49.319382,7.0698318 43.281008,9.3058255 36.508163,16.096643 c -2.973987,2.981878 -4.390435,5.07802 -6.080642,8.998495 -0.849261,1.969878 -2.124765,5.941243 -2.56131,7.97481 -0.113316,0.527863 -0.356799,0.702924 -1.318225,0.947798 -10.007662,2.548929 -14.484143,5.187759 -17.3566394,10.231524 -1.4979054,2.630145 -1.7919069,4.028669 -1.8265582,8.688681 -0.029841,4.013182 0.00387,4.336932 0.6449128,6.193039 1.8556047,5.372829 6.1201468,10.051734 10.7354238,11.778532 1.872796,0.700702 4.558315,0.932956 15.657375,1.354102 5.376937,0.204024 10.18884,0.487667 10.693116,0.630316 1.26125,0.356779 1.929384,1.275041 1.929384,2.651688 0,0.926806 -0.135781,1.240903 -0.8415,1.946622 l -0.8415,0.8415 -9.615375,-0.03856 C 30.438169,78.273976 24.663375,78.179139 22.89375,78.084436 Z"
     id="path36" /><path
     style="fill:#ef4545;fill-opacity:1;stroke-width:0.06138;stroke-dasharray:none"
     d="M 22.769663,78.083654 C 19.054882,77.874749 17.493559,77.453744 14.23125,75.781315 11.478873,74.3703 8.7665782,72.003697 6.1545167,68.73399 2.2040776,63.78894 0.96631041,59.853373 0.96152116,52.2225 0.95930668,48.694058 1.0283999,48.025236 1.5955254,46.085344 2.7865376,42.011407 4.6054614,39.082604 7.8966607,35.939349 11.042347,32.935065 14.167077,31.111604 19.829368,28.975926 l 2.380617,-0.89791 0.937259,-2.282759 c 1.291779,-3.146215 3.427172,-7.391437 4.745848,-9.434877 1.411376,-2.187093 5.781062,-6.6765705 8.489408,-8.7221382 3.536807,-2.671291 9.805326,-5.4836213 13.916749,-6.2436592 2.352943,-0.43496521 9.727693,-0.60718245 13.164248,-0.3074153 5.144337,0.4487352 10.084788,2.3090609 15.254692,5.7441505 3.135724,2.083501 9.22727,8.1515652 11.237438,11.1941232 0.794139,1.201992 1.688304,2.278367 1.987037,2.391946 0.298732,0.113578 2.649249,0.38897 5.223368,0.611983 5.247198,0.454599 6.208748,0.628523 8.464848,1.531106 7.70671,3.083167 13.08778,9.60524 15.59008,18.895774 0.59461,2.207653 0.63449,2.721579 0.65304,8.415 0.0183,5.608694 -0.0233,6.221625 -0.55456,8.1675 -1.24501,4.560561 -3.57721,8.483087 -6.95484,11.69734 -3.67921,3.501251 -7.22674,5.51653 -13.38498,7.603732 -4.293433,1.455169 -6.277809,1.27953 -7.074044,-0.626123 -0.958481,-2.293974 0.05435,-3.388327 4.8614,-5.252715 3.996874,-1.550162 7.436934,-3.290401 9.164304,-4.635984 3.34615,-2.606586 6.43695,-7.180638 7.19138,-10.6425 0.51647,-2.369902 0.41477,-11.415995 -0.15303,-13.6125 C 113.41684,36.563187 109.36198,31.524186 103.95,28.87585 l -1.85625,-0.90835 -5.340832,-0.07875 c -4.92014,-0.07255 -5.466013,-0.03701 -6.93,0.451158 -1.855847,0.618831 -5.980739,2.739117 -9.545778,4.906734 -1.381387,0.839909 -2.622785,1.52711 -2.758665,1.52711 -0.361043,0 -4.010975,-3.942046 -4.010975,-4.331985 0,-0.435994 3.562324,-3.0163 7.425,-5.378169 4.258564,-2.603939 4.086938,-2.456883 3.710639,-3.179439 C 83.560442,19.805199 78.398429,14.40711 75.61125,12.439213 71.938305,9.8459163 67.200165,8.0145378 62.980867,7.5573348 59.850425,7.2181202 53.727159,7.4061734 51.018672,7.9247089 c -5.714129,1.0939607 -9.99554,3.5690371 -14.966916,8.6523461 -3.691631,3.774751 -5.898022,7.99162 -7.692402,14.701767 -0.341411,1.276729 -0.653311,2.353884 -0.693106,2.393679 -0.0398,0.0398 -1.686765,0.517468 -3.659927,1.061493 -7.655933,2.110828 -11.691501,4.622951 -14.4504933,8.995365 -1.8081382,2.865513 -1.9692585,3.536926 -2.0782632,8.660443 -0.080964,3.805548 -0.024962,4.874721 0.3169371,6.050814 1.59871,5.499368 6.7694744,11.226758 11.3818774,12.60712 1.839504,0.550512 5.13394,0.805068 15.791629,1.22019 10.134051,0.394725 10.852117,0.495765 11.653396,1.639749 0.221978,0.316919 0.403596,1.048747 0.403596,1.626283 0,0.821606 -0.167122,1.240411 -0.768139,1.924929 L 45.488723,78.33375 35.676236,78.2957 C 30.279368,78.274776 24.471411,78.179354 22.769663,78.083654 Z"
     id="path37" /></svg>
